  0
SECTION
  2
HEADER
  9
$ACADVER
  1
AC1014
  9
$HANDSEED
  5
FFFF
  9
$MEASUREMENT
 70
     1
  0
ENDSEC
  0
SECTION
  2
TABLES
  0
TABLE
  2
VPORT
  5
8
330
0
100
AcDbSymbolTable
 70
     4
  0
VPORT
  5
2E
330
8
100
AcDbSymbolTableRecord
100
AcDbViewportTableRecord
  2
*ACTIVE
 70
     0
 10
0.0
 20
0.0
 11
1.0
 21
1.0
 12
210.0
 22
148.5
 13
0.0
 23
0.0
 14
10.0
 24
10.0
 15
10.0
 25
10.0
 16
0.0
 26
0.0
 36
1.0
 17
0.0
 27
0.0
 37
0.0
 40
341.0
 41
1.24
 42
50.0
 43
0.0
 44
0.0
 50
0.0
 51
0.0
 71
     0
 72
   100
 73
     1
 74
     3
 75
     0
 76
     0
 77
     0
 78
     0
  0
ENDTAB
  0
TABLE
  2
LTYPE
  5
5
330
0
100
AcDbSymbolTable
 70
     1
  0
LTYPE
  5
14
330
5
100
AcDbSymbolTableRecord
100
AcDbLinetypeTableRecord
  2
BYBLOCK
 70
     0
  3

 72
    65
 73
     0
 40
0.0
  0
LTYPE
  5
15
330
5
100
AcDbSymbolTableRecord
100
AcDbLinetypeTableRecord
  2
BYLAYER
 70
     0
  3

 72
    65
 73
     0
 40
0.0
  0
LTYPE
  5
16
330
5
100
AcDbSymbolTableRecord
100
AcDbLinetypeTableRecord
  2
CONTINUOUS
 70
     0
  3
Solid line
 72
    65
 73
     0
 40
0.0
  0
ENDTAB
  0
TABLE
  2
LAYER
  5
2
100
AcDbSymbolTable
 70
3
  0
LAYER
  5
50
100
AcDbSymbolTableRecord
100
AcDbLayerTableRecord
  2
0
 70
0
  6
CONTINUOUS
  0
LAYER
  5
51
100
AcDbSymbolTableRecord
100
AcDbLayerTableRecord
  2
Master
 70
0
  6
CONTINUOUS
  0
LAYER
  5
52
100
AcDbSymbolTableRecord
100
AcDbLayerTableRecord
  2
Rendered
 70
0
  6
CONTINUOUS
  0
ENDTAB
  0
TABLE
  2
STYLE
  5
3
330
0
100
AcDbSymbolTable
 70
     1
  0
STYLE
  5
11
330
3
100
AcDbSymbolTableRecord
100
AcDbTextStyleTableRecord
  2
STANDARD
 70
     0
 40
0.0
 41
1.0
 50
0.0
 71
     0
 42
2.5
  3
txt
  4

  0
ENDTAB
  0
TABLE
  2
VIEW
  5
6
330
0
100
AcDbSymbolTable
 70
     0
  0
ENDTAB
  0
TABLE
  2
UCS
  5
7
330
0
100
AcDbSymbolTable
 70
     0
  0
ENDTAB
  0
TABLE
  2
APPID
  5
9
330
0
100
AcDbSymbolTable
 70
     2
  0
APPID
  5
12
330
9
100
AcDbSymbolTableRecord
100
AcDbRegAppTableRecord
  2
ACAD
 70
     0
  0
ENDTAB
  0
TABLE
  2
DIMSTYLE
  5
A
330
0
100
AcDbSymbolTable
 70
     1
  0
DIMSTYLE
105
27
330
A
100
AcDbSymbolTableRecord
100
AcDbDimStyleTableRecord
  2
ISO-25
 70
     0
  3

  4

  5

  6

  7

 40
1.0
 41
2.5
 42
0.625
 43
3.75
 44
1.25
 45
0.0
 46
0.0
 47
0.0
 48
0.0
140
2.5
141
2.5
142
0.0
143
0.03937007874016
144
1.0
145
0.0
146
1.0
147
0.625
 71
     0
 72
     0
 73
     0
 74
     0
 75
     0
 76
     0
 77
     1
 78
     8
170
     0
171
     3
172
     1
173
     0
174
     0
175
     0
176
     0
177
     0
178
     0
270
     2
271
     2
272
     2
273
     2
274
     3
340
11
275
     0
280
     0
281
     0
282
     0
283
     0
284
     8
285
     0
286
     0
287
     3
288
     0
  0
ENDTAB
  0
TABLE
  2
BLOCK_RECORD
  5
1
330
0
100
AcDbSymbolTable
 70
     1
  0
BLOCK_RECORD
  5
1F
330
1
100
AcDbSymbolTableRecord
100
AcDbBlockTableRecord
  2
*MODEL_SPACE
  0
BLOCK_RECORD
  5
1B
330
1
100
AcDbSymbolTableRecord
100
AcDbBlockTableRecord
  2
*PAPER_SPACE
  0
ENDTAB
  0
ENDSEC
  0
SECTION
  2
BLOCKS
  0
BLOCK
  5
20
330
1F
100
AcDbEntity
  8
0
100
AcDbBlockBegin
  2
*MODEL_SPACE
 70
     0
 10
0.0
 20
0.0
 30
0.0
  3
*MODEL_SPACE
  1

  0
ENDBLK
  5
21
330
1F
100
AcDbEntity
  8
0
100
AcDbBlockEnd
  0
BLOCK
  5
1C
330
1B
100
AcDbEntity
 67
     1
  8
0
100
AcDbBlockBegin
  2
*PAPER_SPACE
  1

  0
ENDBLK
  5
1D
330
1B
100
AcDbEntity
 67
     1
  8
0
100
AcDbBlockEnd
  0
ENDSEC
  0
SECTION
  2
ENTITIES
  0
LINE
  5
100
100
AcDbEntity
  8
Rendered
 62
7
100
AcDbLine
 10
0.804233
 20
666.427588
 30
0.0
 11
0.969877
 21
666.442068
 31
0.0
  0
LINE
  5
101
100
AcDbEntity
  8
Rendered
 62
7
100
AcDbLine
 10
0.969877
 20
666.442068
 30
0.0
 11
1.453088
 21
666.474468
 31
0.0
  0
LINE
  5
102
100
AcDbEntity
  8
Rendered
 62
7
100
AcDbLine
 10
1.453088
 20
666.474468
 30
0.0
 11
2.233291
 21
666.508148
 31
0.0
  0
LINE
  5
103
100
AcDbEntity
  8
Rendered
 62
7
100
AcDbLine
 10
2.233291
 20
666.508148
 30
0.0
 11
3.289907
 21
666.526388
 31
0.0
  0
LINE
  5
104
100
AcDbEntity
  8
Rendered
 62
7
100
AcDbLine
 10
3.289907
 20
666.526388
 30
0.0
 11
4.602359
 21
666.512468
 31
0.0
  0
LINE
  5
105
100
AcDbEntity
  8
Rendered
 62
7
100
AcDbLine
 10
4.602359
 20
666.512468
 30
0.0
 11
6.150070
 21
666.449748
 31
0.0
  0
LINE
  5
106
100
AcDbEntity
  8
Rendered
 62
7
100
AcDbLine
 10
6.150070
 20
666.449748
 30
0.0
 11
7.912463
 21
666.321524
 31
0.0
  0
LINE
  5
107
100
AcDbEntity
  8
Rendered
 62
7
100
AcDbLine
 10
7.912463
 20
666.321524
 30
0.0
 11
9.868960
 21
666.111140
 31
0.0
  0
LINE
  5
108
100
AcDbEntity
  8
Rendered
 62
7
100
AcDbLine
 10
9.868960
 20
666.111140
 30
0.0
 11
11.998984
 21
665.801916
 31
0.0
  0
LINE
  5
109
100
AcDbEntity
  8
Rendered
 62
7
100
AcDbLine
 10
11.998984
 20
665.801916
 30
0.0
 11
14.281957
 21
665.377156
 31
0.0
  0
LINE
  5
10a
100
AcDbEntity
  8
Rendered
 62
7
100
AcDbLine
 10
14.281957
 20
665.377156
 30
0.0
 11
16.697302
 21
664.820196
 31
0.0
  0
LINE
  5
10b
100
AcDbEntity
  8
Rendered
 62
7
100
AcDbLine
 10
16.697302
 20
664.820196
 30
0.0
 11
19.224442
 21
664.114356
 31
0.0
  0
LINE
  5
10c
100
AcDbEntity
  8
Rendered
 62
7
100
AcDbLine
 10
19.224442
 20
664.114356
 30
0.0
 11
21.842800
 21
663.242956
 31
0.0
  0
LINE
  5
10d
100
AcDbEntity
  8
Rendered
 62
7
100
AcDbLine
 10
21.842800
 20
663.242956
 30
0.0
 11
24.531798
 21
662.189308
 31
0.0
  0
LINE
  5
10e
100
AcDbEntity
  8
Rendered
 62
7
100
AcDbLine
 10
24.531798
 20
662.189308
 30
0.0
 11
27.270858
 21
660.936740
 31
0.0
  0
LINE
  5
10f
100
AcDbEntity
  8
Rendered
 62
7
100
AcDbLine
 10
27.270858
 20
660.936740
 30
0.0
 11
30.039404
 21
659.468572
 31
0.0
  0
LINE
  5
110
100
AcDbEntity
  8
Rendered
 62
7
100
AcDbLine
 10
30.039404
 20
659.468572
 30
0.0
 11
32.816858
 21
657.768132
 31
0.0
  0
LINE
  5
111
100
AcDbEntity
  8
Rendered
 62
7
100
AcDbLine
 10
32.816858
 20
657.768132
 30
0.0
 11
35.582642
 21
655.818724
 31
0.0
  0
LINE
  5
112
100
AcDbEntity
  8
Rendered
 62
7
100
AcDbLine
 10
35.582642
 20
655.818724
 30
0.0
 11
38.316179
 21
653.603684
 31
0.0
  0
LINE
  5
113
100
AcDbEntity
  8
Rendered
 62
7
100
AcDbLine
 10
38.316179
 20
653.603684
 30
0.0
 11
40.996893
 21
651.106324
 31
0.0
  0
LINE
  5
114
100
AcDbEntity
  8
Rendered
 62
7
100
AcDbLine
 10
40.996893
 20
651.106324
 30
0.0
 11
43.604206
 21
648.309964
 31
0.0
  0
LINE
  5
115
100
AcDbEntity
  8
Rendered
 62
7
100
AcDbLine
 10
43.604206
 20
648.309964
 30
0.0
 11
46.117539
 21
645.197932
 31
0.0
  0
LINE
  5
116
100
AcDbEntity
  8
Rendered
 62
7
100
AcDbLine
 10
46.117539
 20
645.197932
 30
0.0
 11
48.516316
 21
641.753548
 31
0.0
  0
LINE
  5
117
100
AcDbEntity
  8
Rendered
 62
7
100
AcDbLine
 10
48.516316
 20
641.753548
 30
0.0
 11
50.779960
 21
637.960124
 31
0.0
  0
LINE
  5
118
100
AcDbEntity
  8
Rendered
 62
7
100
AcDbLine
 10
50.779960
 20
637.960124
 30
0.0
 11
52.887894
 21
633.800988
 31
0.0
  0
LINE
  5
119
100
AcDbEntity
  8
Rendered
 62
7
100
AcDbLine
 10
52.887894
 20
633.800988
 30
0.0
 11
54.819538
 21
629.259460
 31
0.0
  0
LINE
  5
11a
100
AcDbEntity
  8
Rendered
 62
7
100
AcDbLine
 10
54.819538
 20
629.259460
 30
0.0
 11
56.554318
 21
624.318860
 31
0.0
  0
LINE
  5
11b
100
AcDbEntity
  8
Rendered
 62
7
100
AcDbLine
 10
56.554318
 20
624.318860
 30
0.0
 11
58.071654
 21
618.962508
 31
0.0
  0
LINE
  5
11c
100
AcDbEntity
  8
Rendered
 62
7
100
AcDbLine
 10
58.071654
 20
618.962508
 30
0.0
 11
59.350970
 21
613.173732
 31
0.0
  0
LINE
  5
11d
100
AcDbEntity
  8
Rendered
 62
7
100
AcDbLine
 10
59.350970
 20
613.173732
 30
0.0
 11
60.371690
 21
606.935836
 31
0.0
  0
LINE
  5
11e
100
AcDbEntity
  8
Rendered
 62
7
100
AcDbLine
 10
60.371690
 20
606.935836
 30
0.0
 11
61.113234
 21
600.232156
 31
0.0
  0
LINE
  5
11f
100
AcDbEntity
  8
Rendered
 62
7
100
AcDbLine
 10
61.113234
 20
600.232156
 30
0.0
 11
61.555025
 21
593.046012
 31
0.0
  0
LINE
  5
120
100
AcDbEntity
  8
Rendered
 62
7
100
AcDbLine
 10
61.555025
 20
593.046012
 30
0.0
 11
61.755418
 21
587.580236
 31
0.0
  0
LINE
  5
121
100
AcDbEntity
  8
Rendered
 62
7
100
AcDbLine
 10
61.755418
 20
587.580236
 30
0.0
 11
61.967822
 21
581.329028
 31
0.0
  0
LINE
  5
122
100
AcDbEntity
  8
Rendered
 62
7
100
AcDbLine
 10
61.967822
 20
581.329028
 30
0.0
 11
62.191039
 21
574.336540
 31
0.0
  0
LINE
  5
123
100
AcDbEntity
  8
Rendered
 62
7
100
AcDbLine
 10
62.191039
 20
574.336540
 30
0.0
 11
62.423874
 21
566.646916
 31
0.0
  0
LINE
  5
124
100
AcDbEntity
  8
Rendered
 62
7
100
AcDbLine
 10
62.423874
 20
566.646916
 30
0.0
 11
62.665131
 21
558.304300
 31
0.0
  0
LINE
  5
125
100
AcDbEntity
  8
Rendered
 62
7
100
AcDbLine
 10
62.665131
 20
558.304300
 30
0.0
 11
62.913613
 21
549.352836
 31
0.0
  0
LINE
  5
126
100
AcDbEntity
  8
Rendered
 62
7
100
AcDbLine
 10
62.913613
 20
549.352836
 30
0.0
 11
63.168124
 21
539.836684
 31
0.0
  0
LINE
  5
127
100
AcDbEntity
  8
Rendered
 62
7
100
AcDbLine
 10
63.168124
 20
539.836684
 30
0.0
 11
63.427467
 21
529.799988
 31
0.0
  0
LINE
  5
128
100
AcDbEntity
  8
Rendered
 62
7
100
AcDbLine
 10
63.427467
 20
529.799988
 30
0.0
 11
63.690447
 21
519.286892
 31
0.0
  0
LINE
  5
129
100
AcDbEntity
  8
Rendered
 62
7
100
AcDbLine
 10
63.690447
 20
519.286892
 30
0.0
 11
63.955868
 21
508.341540
 31
0.0
  0
LINE
  5
12a
100
AcDbEntity
  8
Rendered
 62
7
100
AcDbLine
 10
63.955868
 20
508.341540
 30
0.0
 11
64.222532
 21
497.008084
 31
0.0
  0
LINE
  5
12b
100
AcDbEntity
  8
Rendered
 62
7
100
AcDbLine
 10
64.222532
 20
497.008084
 30
0.0
 11
64.489244
 21
485.330676
 31
0.0
  0
LINE
  5
12c
100
AcDbEntity
  8
Rendered
 62
7
100
AcDbLine
 10
64.489244
 20
485.330676
 30
0.0
 11
64.754807
 21
473.353452
 31
0.0
  0
LINE
  5
12d
100
AcDbEntity
  8
Rendered
 62
7
100
AcDbLine
 10
64.754807
 20
473.353452
 30
0.0
 11
65.018026
 21
461.120572
 31
0.0
  0
LINE
  5
12e
100
AcDbEntity
  8
Rendered
 62
7
100
AcDbLine
 10
65.018026
 20
461.120572
 30
0.0
 11
65.277704
 21
448.676172
 31
0.0
  0
LINE
  5
12f
100
AcDbEntity
  8
Rendered
 62
7
100
AcDbLine
 10
65.277704
 20
448.676172
 30
0.0
 11
65.532644
 21
436.064404
 31
0.0
  0
LINE
  5
130
100
AcDbEntity
  8
Rendered
 62
7
100
AcDbLine
 10
65.532644
 20
436.064404
 30
0.0
 11
65.781651
 21
423.329420
 31
0.0
  0
LINE
  5
131
100
AcDbEntity
  8
Rendered
 62
7
100
AcDbLine
 10
65.781651
 20
423.329420
 30
0.0
 11
66.023528
 21
410.515364
 31
0.0
  0
LINE
  5
132
100
AcDbEntity
  8
Rendered
 62
7
100
AcDbLine
 10
66.023528
 20
410.515364
 30
0.0
 11
66.257079
 21
397.666380
 31
0.0
  0
LINE
  5
133
100
AcDbEntity
  8
Rendered
 62
7
100
AcDbLine
 10
66.257079
 20
397.666380
 30
0.0
 11
66.481108
 21
384.826620
 31
0.0
  0
LINE
  5
134
100
AcDbEntity
  8
Rendered
 62
7
100
AcDbLine
 10
66.481108
 20
384.826620
 30
0.0
 11
66.694418
 21
372.040228
 31
0.0
  0
LINE
  5
135
100
AcDbEntity
  8
Rendered
 62
7
100
AcDbLine
 10
66.694418
 20
372.040228
 30
0.0
 11
66.895814
 21
359.351356
 31
0.0
  0
LINE
  5
136
100
AcDbEntity
  8
Rendered
 62
7
100
AcDbLine
 10
66.895814
 20
359.351356
 30
0.0
 11
67.084099
 21
346.804148
 31
0.0
  0
LINE
  5
137
100
AcDbEntity
  8
Rendered
 62
7
100
AcDbLine
 10
67.084099
 20
346.804148
 30
0.0
 11
67.258076
 21
334.442756
 31
0.0
  0
LINE
  5
138
100
AcDbEntity
  8
Rendered
 62
7
100
AcDbLine
 10
67.258076
 20
334.442756
 30
0.0
 11
67.416550
 21
322.311316
 31
0.0
  0
LINE
  5
139
100
AcDbEntity
  8
Rendered
 62
7
100
AcDbLine
 10
67.416550
 20
322.311316
 30
0.0
 11
67.558325
 21
310.453988
 31
0.0
  0
LINE
  5
13a
100
AcDbEntity
  8
Rendered
 62
7
100
AcDbLine
 10
67.558325
 20
310.453988
 30
0.0
 11
67.682202
 21
298.914916
 31
0.0
  0
LINE
  5
13b
100
AcDbEntity
  8
Rendered
 62
7
100
AcDbLine
 10
67.682202
 20
298.914916
 30
0.0
 11
67.786989
 21
287.738236
 31
0.0
  0
LINE
  5
13c
100
AcDbEntity
  8
Rendered
 62
7
100
AcDbLine
 10
67.786989
 20
287.738236
 30
0.0
 11
67.871486
 21
276.968116
 31
0.0
  0
LINE
  5
13d
100
AcDbEntity
  8
Rendered
 62
7
100
AcDbLine
 10
67.871486
 20
276.968116
 30
0.0
 11
67.934502
 21
266.648692
 31
0.0
  0
LINE
  5
13e
100
AcDbEntity
  8
Rendered
 62
7
100
AcDbLine
 10
67.934502
 20
266.648692
 30
0.0
 11
67.974838
 21
256.824108
 31
0.0
  0
LINE
  5
13f
100
AcDbEntity
  8
Rendered
 62
7
100
AcDbLine
 10
67.974838
 20
256.824108
 30
0.0
 11
67.991294
 21
247.538516
 31
0.0
  0
LINE
  5
140
100
AcDbEntity
  8
Rendered
 62
7
100
AcDbLine
 10
67.991294
 20
247.538516
 30
0.0
 11
68.067102
 21
245.361772
 31
0.0
  0
LINE
  5
141
100
AcDbEntity
  8
Rendered
 62
7
100
AcDbLine
 10
68.067102
 20
245.361772
 30
0.0
 11
68.298033
 21
243.144924
 31
0.0
  0
LINE
  5
142
100
AcDbEntity
  8
Rendered
 62
7
100
AcDbLine
 10
68.298033
 20
243.144924
 30
0.0
 11
68.692296
 21
240.894508
 31
0.0
  0
LINE
  5
143
100
AcDbEntity
  8
Rendered
 62
7
100
AcDbLine
 10
68.692296
 20
240.894508
 30
0.0
 11
69.258102
 21
238.617036
 31
0.0
  0
LINE
  5
144
100
AcDbEntity
  8
Rendered
 62
7
100
AcDbLine
 10
69.258102
 20
238.617036
 30
0.0
 11
70.003662
 21
236.319044
 31
0.0
  0
LINE
  5
145
100
AcDbEntity
  8
Rendered
 62
7
100
AcDbLine
 10
70.003662
 20
236.319044
 30
0.0
 11
70.937186
 21
234.007060
 31
0.0
  0
LINE
  5
146
100
AcDbEntity
  8
Rendered
 62
7
100
AcDbLine
 10
70.937186
 20
234.007060
 30
0.0
 11
72.066886
 21
231.687596
 31
0.0
  0
LINE
  5
147
100
AcDbEntity
  8
Rendered
 62
7
100
AcDbLine
 10
72.066886
 20
231.687596
 30
0.0
 11
73.400973
 21
229.367196
 31
0.0
  0
LINE
  5
148
100
AcDbEntity
  8
Rendered
 62
7
100
AcDbLine
 10
73.400973
 20
229.367196
 30
0.0
 11
74.947656
 21
227.052372
 31
0.0
  0
LINE
  5
149
100
AcDbEntity
  8
Rendered
 62
7
100
AcDbLine
 10
74.947656
 20
227.052372
 30
0.0
 11
76.715146
 21
224.749652
 31
0.0
  0
LINE
  5
14a
100
AcDbEntity
  8
Rendered
 62
7
100
AcDbLine
 10
76.715146
 20
224.749652
 30
0.0
 11
78.711656
 21
222.465572
 31
0.0
  0
LINE
  5
14b
100
AcDbEntity
  8
Rendered
 62
7
100
AcDbLine
 10
78.711656
 20
222.465572
 30
0.0
 11
80.945399
 21
220.206644
 31
0.0
  0
LINE
  5
14c
100
AcDbEntity
  8
Rendered
 62
7
100
AcDbLine
 10
80.945399
 20
220.206644
 30
0.0
 11
83.424575
 21
217.979404
 31
0.0
  0
LINE
  5
14d
100
AcDbEntity
  8
Rendered
 62
7
100
AcDbLine
 10
83.424575
 20
217.979404
 30
0.0
 11
86.157407
 21
215.790380
 31
0.0
  0
LINE
  5
14e
100
AcDbEntity
  8
Rendered
 62
7
100
AcDbLine
 10
86.157407
 20
215.790380
 30
0.0
 11
89.152095
 21
213.646084
 31
0.0
  0
LINE
  5
14f
100
AcDbEntity
  8
Rendered
 62
7
100
AcDbLine
 10
89.152095
 20
213.646084
 30
0.0
 11
92.416863
 21
211.553060
 31
0.0
  0
LINE
  5
150
100
AcDbEntity
  8
Rendered
 62
7
100
AcDbLine
 10
92.416863
 20
211.553060
 30
0.0
 11
95.959911
 21
209.517820
 31
0.0
  0
LINE
  5
151
100
AcDbEntity
  8
Rendered
 62
7
100
AcDbLine
 10
95.959911
 20
209.517820
 30
0.0
 11
99.789447
 21
207.546892
 31
0.0
  0
LINE
  5
152
100
AcDbEntity
  8
Rendered
 62
7
100
AcDbLine
 10
99.789447
 20
207.546892
 30
0.0
 11
103.913695
 21
205.646804
 31
0.0
  0
LINE
  5
153
100
AcDbEntity
  8
Rendered
 62
7
100
AcDbLine
 10
103.913695
 20
205.646804
 30
0.0
 11
108.340863
 21
203.824084
 31
0.0
  0
LINE
  5
154
100
AcDbEntity
  8
Rendered
 62
7
100
AcDbLine
 10
108.340863
 20
203.824084
 30
0.0
 11
113.079151
 21
202.085260
 31
0.0
  0
LINE
  5
155
100
AcDbEntity
  8
Rendered
 62
7
100
AcDbLine
 10
113.079151
 20
202.085260
 30
0.0
 11
118.136775
 21
200.436852
 31
0.0
  0
LINE
  5
156
100
AcDbEntity
  8
Rendered
 62
7
100
AcDbLine
 10
118.136775
 20
200.436852
 30
0.0
 11
123.521951
 21
198.885388
 31
0.0
  0
LINE
  5
157
100
AcDbEntity
  8
Rendered
 62
7
100
AcDbLine
 10
123.521951
 20
198.885388
 30
0.0
 11
129.242887
 21
197.437396
 31
0.0
  0
LINE
  5
158
100
AcDbEntity
  8
Rendered
 62
7
100
AcDbLine
 10
129.242887
 20
197.437396
 30
0.0
 11
135.307783
 21
196.099404
 31
0.0
  0
LINE
  5
159
100
AcDbEntity
  8
Rendered
 62
7
100
AcDbLine
 10
135.307783
 20
196.099404
 30
0.0
 11
141.724871
 21
194.877924
 31
0.0
  0
LINE
  5
15a
100
AcDbEntity
  8
Rendered
 62
7
100
AcDbLine
 10
141.724871
 20
194.877924
 30
0.0
 11
148.502343
 21
193.779500
 31
0.0
  0
LINE
  5
15b
100
AcDbEntity
  8
Rendered
 62
7
100
AcDbLine
 10
148.502343
 20
193.779500
 30
0.0
 11
155.648423
 21
192.810644
 31
0.0
  0
LINE
  5
15c
100
AcDbEntity
  8
Rendered
 62
7
100
AcDbLine
 10
155.648423
 20
192.810644
 30
0.0
 11
163.171311
 21
191.977892
 31
0.0
  0
LINE
  5
15d
100
AcDbEntity
  8
Rendered
 62
7
100
AcDbLine
 10
163.171311
 20
191.977892
 30
0.0
 11
171.079223
 21
191.287772
 31
0.0
  0
LINE
  5
15e
100
AcDbEntity
  8
Rendered
 62
7
100
AcDbLine
 10
171.079223
 20
191.287772
 30
0.0
 11
179.380375
 21
190.746796
 31
0.0
  0
LINE
  5
15f
100
AcDbEntity
  8
Rendered
 62
7
100
AcDbLine
 10
179.380375
 20
190.746796
 30
0.0
 11
188.082967
 21
190.361500
 31
0.0
  0
LINE
  5
160
100
AcDbEntity
  8
Rendered
 62
7
100
AcDbLine
 10
188.082967
 20
190.361500
 30
0.0
 11
193.820983
 21
190.154092
 31
0.0
  0
LINE
  5
161
100
AcDbEntity
  8
Rendered
 62
7
100
AcDbLine
 10
193.820983
 20
190.154092
 30
0.0
 11
200.153943
 21
189.910660
 31
0.0
  0
LINE
  5
162
100
AcDbEntity
  8
Rendered
 62
7
100
AcDbLine
 10
200.153943
 20
189.910660
 30
0.0
 11
207.026727
 21
189.641796
 31
0.0
  0
LINE
  5
163
100
AcDbEntity
  8
Rendered
 62
7
100
AcDbLine
 10
207.026727
 20
189.641796
 30
0.0
 11
214.384223
 21
189.358092
 31
0.0
  0
LINE
  5
164
100
AcDbEntity
  8
Rendered
 62
7
100
AcDbLine
 10
214.384223
 20
189.358092
 30
0.0
 11
222.171295
 21
189.070164
 31
0.0
  0
LINE
  5
165
100
AcDbEntity
  8
Rendered
 62
7
100
AcDbLine
 10
222.171295
 20
189.070164
 30
0.0
 11
230.332831
 21
188.788596
 31
0.0
  0
LINE
  5
166
100
AcDbEntity
  8
Rendered
 62
7
100
AcDbLine
 10
230.332831
 20
188.788596
 30
0.0
 11
238.813703
 21
188.523988
 31
0.0
  0
LINE
  5
167
100
AcDbEntity
  8
Rendered
 62
7
100
AcDbLine
 10
238.813703
 20
188.523988
 30
0.0
 11
247.558791
 21
188.286948
 31
0.0
  0
LINE
  5
168
100
AcDbEntity
  8
Rendered
 62
7
100
AcDbLine
 10
247.558791
 20
188.286948
 30
0.0
 11
256.512975
 21
188.088052
 31
0.0
  0
LINE
  5
169
100
AcDbEntity
  8
Rendered
 62
7
100
AcDbLine
 10
256.512975
 20
188.088052
 30
0.0
 11
265.621119
 21
187.937916
 31
0.0
  0
LINE
  5
16a
100
AcDbEntity
  8
Rendered
 62
7
100
AcDbLine
 10
265.621119
 20
187.937916
 30
0.0
 11
274.828119
 21
187.847140
 31
0.0
  0
LINE
  5
16b
100
AcDbEntity
  8
Rendered
 62
7
100
AcDbLine
 10
274.828119
 20
187.847140
 30
0.0
 11
284.078839
 21
187.826340
 31
0.0
  0
LINE
  5
16c
100
AcDbEntity
  8
Rendered
 62
7
100
AcDbLine
 10
284.078839
 20
187.826340
 30
0.0
 11
293.318167
 21
187.886020
 31
0.0
  0
LINE
  5
16d
100
AcDbEntity
  8
Rendered
 62
7
100
AcDbLine
 10
293.318167
 20
187.886020
 30
0.0
 11
302.490975
 21
188.036884
 31
0.0
  0
LINE
  5
16e
100
AcDbEntity
  8
Rendered
 62
7
100
AcDbLine
 10
302.490975
 20
188.036884
 30
0.0
 11
311.542143
 21
188.289492
 31
0.0
  0
LINE
  5
16f
100
AcDbEntity
  8
Rendered
 62
7
100
AcDbLine
 10
311.542143
 20
188.289492
 30
0.0
 11
320.416543
 21
188.654444
 31
0.0
  0
LINE
  5
170
100
AcDbEntity
  8
Rendered
 62
7
100
AcDbLine
 10
320.416543
 20
188.654444
 30
0.0
 11
329.059055
 21
189.142332
 31
0.0
  0
LINE
  5
171
100
AcDbEntity
  8
Rendered
 62
7
100
AcDbLine
 10
329.059055
 20
189.142332
 30
0.0
 11
337.414559
 21
189.763756
 31
0.0
  0
LINE
  5
172
100
AcDbEntity
  8
Rendered
 62
7
100
AcDbLine
 10
337.414559
 20
189.763756
 30
0.0
 11
345.427935
 21
190.529316
 31
0.0
  0
LINE
  5
173
100
AcDbEntity
  8
Rendered
 62
7
100
AcDbLine
 10
345.427935
 20
190.529316
 30
0.0
 11
353.044055
 21
191.449612
 31
0.0
  0
LINE
  5
174
100
AcDbEntity
  8
Rendered
 62
7
100
AcDbLine
 10
353.044055
 20
191.449612
 30
0.0
 11
360.207807
 21
192.535236
 31
0.0
  0
LINE
  5
175
100
AcDbEntity
  8
Rendered
 62
7
100
AcDbLine
 10
360.207807
 20
192.535236
 30
0.0
 11
366.864055
 21
193.796796
 31
0.0
  0
LINE
  5
176
100
AcDbEntity
  8
Rendered
 62
7
100
AcDbLine
 10
366.864055
 20
193.796796
 30
0.0
 11
372.957679
 21
195.244876
 31
0.0
  0
LINE
  5
177
100
AcDbEntity
  8
Rendered
 62
7
100
AcDbLine
 10
372.957679
 20
195.244876
 30
0.0
 11
378.433567
 21
196.890084
 31
0.0
  0
LINE
  5
178
100
AcDbEntity
  8
Rendered
 62
7
100
AcDbLine
 10
378.433567
 20
196.890084
 30
0.0
 11
383.236583
 21
198.743012
 31
0.0
  0
LINE
  5
179
100
AcDbEntity
  8
Rendered
 62
7
100
AcDbLine
 10
383.236583
 20
198.743012
 30
0.0
 11
387.311615
 21
200.814260
 31
0.0
  0
LINE
  5
17a
100
AcDbEntity
  8
Rendered
 62
7
100
AcDbLine
 10
387.311615
 20
200.814260
 30
0.0
 11
390.603535
 21
203.114420
 31
0.0
  0
LINE
  5
17b
100
AcDbEntity
  8
Rendered
 62
7
100
AcDbLine
 10
390.603535
 20
203.114420
 30
0.0
 11
393.057223
 21
205.654108
 31
0.0
  0
LINE
  5
17c
100
AcDbEntity
  8
Rendered
 62
7
100
AcDbLine
 10
393.057223
 20
205.654108
 30
0.0
 11
394.617559
 21
208.443900
 31
0.0
  0
LINE
  5
17d
100
AcDbEntity
  8
Rendered
 62
7
100
AcDbLine
 10
394.617559
 20
208.443900
 30
0.0
 11
395.229415
 21
211.494404
 31
0.0
  0
LINE
  5
17e
100
AcDbEntity
  8
Rendered
 62
7
100
AcDbLine
 10
395.229415
 20
211.494404
 30
0.0
 11
394.837671
 21
214.816228
 31
0.0
  0
LINE
  5
17f
100
AcDbEntity
  8
Rendered
 62
7
100
AcDbLine
 10
394.837671
 20
214.816228
 30
0.0
 11
393.387207
 21
218.419948
 31
0.0
  0
LINE
  5
180
100
AcDbEntity
  8
Rendered
 62
7
100
AcDbLine
 10
393.387207
 20
218.419948
 30
0.0
 11
384.729023
 21
235.393580
 31
0.0
  0
LINE
  5
181
100
AcDbEntity
  8
Rendered
 62
7
100
AcDbLine
 10
384.729023
 20
235.393580
 30
0.0
 11
377.857207
 21
250.407652
 31
0.0
  0
LINE
  5
182
100
AcDbEntity
  8
Rendered
 62
7
100
AcDbLine
 10
377.857207
 20
250.407652
 30
0.0
 11
372.672639
 21
263.537044
 31
0.0
  0
LINE
  5
183
100
AcDbEntity
  8
Rendered
 62
7
100
AcDbLine
 10
372.672639
 20
263.537044
 30
0.0
 11
369.076199
 21
274.856644
 31
0.0
  0
LINE
  5
184
100
AcDbEntity
  8
Rendered
 62
7
100
AcDbLine
 10
369.076199
 20
274.856644
 30
0.0
 11
366.968767
 21
284.441356
 31
0.0
  0
LINE
  5
185
100
AcDbEntity
  8
Rendered
 62
7
100
AcDbLine
 10
366.968767
 20
284.441356
 30
0.0
 11
366.251223
 21
292.366068
 31
0.0
  0
LINE
  5
186
100
AcDbEntity
  8
Rendered
 62
7
100
AcDbLine
 10
366.251223
 20
292.366068
 30
0.0
 11
366.824431
 21
298.705668
 31
0.0
  0
LINE
  5
187
100
AcDbEntity
  8
Rendered
 62
7
100
AcDbLine
 10
366.824431
 20
298.705668
 30
0.0
 11
368.589287
 21
303.535044
 31
0.0
  0
LINE
  5
188
100
AcDbEntity
  8
Rendered
 62
7
100
AcDbLine
 10
368.589287
 20
303.535044
 30
0.0
 11
371.446655
 21
306.929092
 31
0.0
  0
LINE
  5
189
100
AcDbEntity
  8
Rendered
 62
7
100
AcDbLine
 10
371.446655
 20
306.929092
 30
0.0
 11
375.297415
 21
308.962708
 31
0.0
  0
LINE
  5
18a
100
AcDbEntity
  8
Rendered
 62
7
100
AcDbLine
 10
375.297415
 20
308.962708
 30
0.0
 11
380.042447
 21
309.710780
 31
0.0
  0
LINE
  5
18b
100
AcDbEntity
  8
Rendered
 62
7
100
AcDbLine
 10
380.042447
 20
309.710780
 30
0.0
 11
385.582631
 21
309.248188
 31
0.0
  0
LINE
  5
18c
100
AcDbEntity
  8
Rendered
 62
7
100
AcDbLine
 10
385.582631
 20
309.248188
 30
0.0
 11
391.818847
 21
307.649844
 31
0.0
  0
LINE
  5
18d
100
AcDbEntity
  8
Rendered
 62
7
100
AcDbLine
 10
391.818847
 20
307.649844
 30
0.0
 11
398.651967
 21
304.990620
 31
0.0
  0
LINE
  5
18e
100
AcDbEntity
  8
Rendered
 62
7
100
AcDbLine
 10
398.651967
 20
304.990620
 30
0.0
 11
405.982863
 21
301.345420
 31
0.0
  0
LINE
  5
18f
100
AcDbEntity
  8
Rendered
 62
7
100
AcDbLine
 10
405.982863
 20
301.345420
 30
0.0
 11
413.712423
 21
296.789132
 31
0.0
  0
LINE
  5
190
100
AcDbEntity
  8
Rendered
 62
7
100
AcDbLine
 10
413.712423
 20
296.789132
 30
0.0
 11
421.741527
 21
291.396644
 31
0.0
  0
LINE
  5
191
100
AcDbEntity
  8
Rendered
 62
7
100
AcDbLine
 10
421.741527
 20
291.396644
 30
0.0
 11
429.971047
 21
285.242852
 31
0.0
  0
LINE
  5
192
100
AcDbEntity
  8
Rendered
 62
7
100
AcDbLine
 10
429.971047
 20
285.242852
 30
0.0
 11
438.301855
 21
278.402644
 31
0.0
  0
LINE
  5
193
100
AcDbEntity
  8
Rendered
 62
7
100
AcDbLine
 10
438.301855
 20
278.402644
 30
0.0
 11
446.634839
 21
270.950916
 31
0.0
  0
LINE
  5
194
100
AcDbEntity
  8
Rendered
 62
7
100
AcDbLine
 10
446.634839
 20
270.950916
 30
0.0
 11
454.870871
 21
262.962556
 31
0.0
  0
LINE
  5
195
100
AcDbEntity
  8
Rendered
 62
7
100
AcDbLine
 10
454.870871
 20
262.962556
 30
0.0
 11
462.910831
 21
254.512452
 31
0.0
  0
LINE
  5
196
100
AcDbEntity
  8
Rendered
 62
7
100
AcDbLine
 10
462.910831
 20
254.512452
 30
0.0
 11
470.655599
 21
245.675500
 31
0.0
  0
LINE
  5
197
100
AcDbEntity
  8
Rendered
 62
7
100
AcDbLine
 10
470.655599
 20
245.675500
 30
0.0
 11
478.006047
 21
236.526596
 31
0.0
  0
LINE
  5
198
100
AcDbEntity
  8
Rendered
 62
7
100
AcDbLine
 10
478.006047
 20
236.526596
 30
0.0
 11
484.863055
 21
227.140620
 31
0.0
  0
LINE
  5
199
100
AcDbEntity
  8
Rendered
 62
7
100
AcDbLine
 10
484.863055
 20
227.140620
 30
0.0
 11
491.127511
 21
217.592468
 31
0.0
  0
LINE
  5
19a
100
AcDbEntity
  8
Rendered
 62
7
100
AcDbLine
 10
491.127511
 20
217.592468
 30
0.0
 11
496.700271
 21
207.957036
 31
0.0
  0
LINE
  5
19b
100
AcDbEntity
  8
Rendered
 62
7
100
AcDbLine
 10
496.700271
 20
207.957036
 30
0.0
 11
501.482231
 21
198.309212
 31
0.0
  0
LINE
  5
19c
100
AcDbEntity
  8
Rendered
 62
7
100
AcDbLine
 10
501.482231
 20
198.309212
 30
0.0
 11
505.374263
 21
188.723884
 31
0.0
  0
LINE
  5
19d
100
AcDbEntity
  8
Rendered
 62
7
100
AcDbLine
 10
505.374263
 20
188.723884
 30
0.0
 11
508.277247
 21
179.275948
 31
0.0
  0
LINE
  5
19e
100
AcDbEntity
  8
Rendered
 62
7
100
AcDbLine
 10
508.277247
 20
179.275948
 30
0.0
 11
510.092055
 21
170.040292
 31
0.0
  0
LINE
  5
19f
100
AcDbEntity
  8
Rendered
 62
7
100
AcDbLine
 10
510.092055
 20
170.040292
 30
0.0
 11
510.719567
 21
161.091812
 31
0.0
  0
LINE
  5
1a0
100
AcDbEntity
  8
Rendered
 62
7
100
AcDbLine
 10
510.719567
 20
161.091812
 30
0.0
 11
510.451055
 21
153.641612
 31
0.0
  0
LINE
  5
1a1
100
AcDbEntity
  8
Rendered
 62
7
100
AcDbLine
 10
510.451055
 20
153.641612
 30
0.0
 11
509.662303
 21
146.813788
 31
0.0
  0
LINE
  5
1a2
100
AcDbEntity
  8
Rendered
 62
7
100
AcDbLine
 10
509.662303
 20
146.813788
 30
0.0
 11
508.380647
 21
140.586180
 31
0.0
  0
LINE
  5
1a3
100
AcDbEntity
  8
Rendered
 62
7
100
AcDbLine
 10
508.380647
 20
140.586180
 30
0.0
 11
506.633431
 21
134.936604
 31
0.0
  0
LINE
  5
1a4
100
AcDbEntity
  8
Rendered
 62
7
100
AcDbLine
 10
506.633431
 20
134.936604
 30
0.0
 11
504.447999
 21
129.842916
 31
0.0
  0
LINE
  5
1a5
100
AcDbEntity
  8
Rendered
 62
7
100
AcDbLine
 10
504.447999
 20
129.842916
 30
0.0
 11
501.851703
 21
125.282924
 31
0.0
  0
LINE
  5
1a6
100
AcDbEntity
  8
Rendered
 62
7
100
AcDbLine
 10
501.851703
 20
125.282924
 30
0.0
 11
498.871895
 21
121.234484
 31
0.0
  0
LINE
  5
1a7
100
AcDbEntity
  8
Rendered
 62
7
100
AcDbLine
 10
498.871895
 20
121.234484
 30
0.0
 11
495.535903
 21
117.675412
 31
0.0
  0
LINE
  5
1a8
100
AcDbEntity
  8
Rendered
 62
7
100
AcDbLine
 10
495.535903
 20
117.675412
 30
0.0
 11
491.871079
 21
114.583556
 31
0.0
  0
LINE
  5
1a9
100
AcDbEntity
  8
Rendered
 62
7
100
AcDbLine
 10
491.871079
 20
114.583556
 30
0.0
 11
487.904775
 21
111.936732
 31
0.0
  0
LINE
  5
1aa
100
AcDbEntity
  8
Rendered
 62
7
100
AcDbLine
 10
487.904775
 20
111.936732
 30
0.0
 11
483.664335
 21
109.712788
 31
0.0
  0
LINE
  5
1ab
100
AcDbEntity
  8
Rendered
 62
7
100
AcDbLine
 10
483.664335
 20
109.712788
 30
0.0
 11
479.177103
 21
107.889548
 31
0.0
  0
LINE
  5
1ac
100
AcDbEntity
  8
Rendered
 62
7
100
AcDbLine
 10
479.177103
 20
107.889548
 30
0.0
 11
474.470415
 21
106.444852
 31
0.0
  0
LINE
  5
1ad
100
AcDbEntity
  8
Rendered
 62
7
100
AcDbLine
 10
474.470415
 20
106.444852
 30
0.0
 11
469.571631
 21
105.356524
 31
0.0
  0
LINE
  5
1ae
100
AcDbEntity
  8
Rendered
 62
7
100
AcDbLine
 10
469.571631
 20
105.356524
 30
0.0
 11
464.508079
 21
104.602404
 31
0.0
  0
LINE
  5
1af
100
AcDbEntity
  8
Rendered
 62
7
100
AcDbLine
 10
464.508079
 20
104.602404
 30
0.0
 11
459.307127
 21
104.160324
 31
0.0
  0
LINE
  5
1b0
100
AcDbEntity
  8
Rendered
 62
7
100
AcDbLine
 10
459.307127
 20
104.160324
 30
0.0
 11
453.996103
 21
104.008116
 31
0.0
  0
LINE
  5
1b1
100
AcDbEntity
  8
Rendered
 62
7
100
AcDbLine
 10
453.996103
 20
104.008116
 30
0.0
 11
448.602359
 21
104.123612
 31
0.0
  0
LINE
  5
1b2
100
AcDbEntity
  8
Rendered
 62
7
100
AcDbLine
 10
448.602359
 20
104.123612
 30
0.0
 11
443.153239
 21
104.484644
 31
0.0
  0
LINE
  5
1b3
100
AcDbEntity
  8
Rendered
 62
7
100
AcDbLine
 10
443.153239
 20
104.484644
 30
0.0
 11
437.676095
 21
105.069052
 31
0.0
  0
LINE
  5
1b4
100
AcDbEntity
  8
Rendered
 62
7
100
AcDbLine
 10
437.676095
 20
105.069052
 30
0.0
 11
432.198255
 21
105.854660
 31
0.0
  0
LINE
  5
1b5
100
AcDbEntity
  8
Rendered
 62
7
100
AcDbLine
 10
432.198255
 20
105.854660
 30
0.0
 11
426.747087
 21
106.819308
 31
0.0
  0
LINE
  5
1b6
100
AcDbEntity
  8
Rendered
 62
7
100
AcDbLine
 10
426.747087
 20
106.819308
 30
0.0
 11
421.349919
 21
107.940828
 31
0.0
  0
LINE
  5
1b7
100
AcDbEntity
  8
Rendered
 62
7
100
AcDbLine
 10
421.349919
 20
107.940828
 30
0.0
 11
416.034103
 21
109.197044
 31
0.0
  0
LINE
  5
1b8
100
AcDbEntity
  8
Rendered
 62
7
100
AcDbLine
 10
416.034103
 20
109.197044
 30
0.0
 11
410.826983
 21
110.565804
 31
0.0
  0
LINE
  5
1b9
100
AcDbEntity
  8
Rendered
 62
7
100
AcDbLine
 10
410.826983
 20
110.565804
 30
0.0
 11
405.755911
 21
112.024932
 31
0.0
  0
LINE
  5
1ba
100
AcDbEntity
  8
Rendered
 62
7
100
AcDbLine
 10
405.755911
 20
112.024932
 30
0.0
 11
400.848223
 21
113.552260
 31
0.0
  0
LINE
  5
1bb
100
AcDbEntity
  8
Rendered
 62
7
100
AcDbLine
 10
400.848223
 20
113.552260
 30
0.0
 11
396.131271
 21
115.125628
 31
0.0
  0
LINE
  5
1bc
100
AcDbEntity
  8
Rendered
 62
7
100
AcDbLine
 10
396.131271
 20
115.125628
 30
0.0
 11
391.632391
 21
116.722860
 31
0.0
  0
LINE
  5
1bd
100
AcDbEntity
  8
Rendered
 62
7
100
AcDbLine
 10
391.632391
 20
116.722860
 30
0.0
 11
387.378943
 21
118.321796
 31
0.0
  0
LINE
  5
1be
100
AcDbEntity
  8
Rendered
 62
7
100
AcDbLine
 10
387.378943
 20
118.321796
 30
0.0
 11
383.398263
 21
119.900260
 31
0.0
  0
LINE
  5
1bf
100
AcDbEntity
  8
Rendered
 62
7
100
AcDbLine
 10
383.398263
 20
119.900260
 30
0.0
 11
379.717695
 21
121.436100
 31
0.0
  0
LINE
  5
1c0
100
AcDbEntity
  8
Rendered
 62
7
100
AcDbLine
 10
379.717695
 20
121.436100
 30
0.0
 11
376.423951
 21
122.827916
 31
0.0
  0
LINE
  5
1c1
100
AcDbEntity
  8
Rendered
 62
7
100
AcDbLine
 10
376.423951
 20
122.827916
 30
0.0
 11
373.135687
 21
124.176188
 31
0.0
  0
LINE
  5
1c2
100
AcDbEntity
  8
Rendered
 62
7
100
AcDbLine
 10
373.135687
 20
124.176188
 30
0.0
 11
369.835519
 21
125.480212
 31
0.0
  0
LINE
  5
1c3
100
AcDbEntity
  8
Rendered
 62
7
100
AcDbLine
 10
369.835519
 20
125.480212
 30
0.0
 11
366.506071
 21
126.739300
 31
0.0
  0
LINE
  5
1c4
100
AcDbEntity
  8
Rendered
 62
7
100
AcDbLine
 10
366.506071
 20
126.739300
 30
0.0
 11
363.129943
 21
127.952740
 31
0.0
  0
LINE
  5
1c5
100
AcDbEntity
  8
Rendered
 62
7
100
AcDbLine
 10
363.129943
 20
127.952740
 30
0.0
 11
359.689767
 21
129.119852
 31
0.0
  0
LINE
  5
1c6
100
AcDbEntity
  8
Rendered
 62
7
100
AcDbLine
 10
359.689767
 20
129.119852
 30
0.0
 11
356.168135
 21
130.239916
 31
0.0
  0
LINE
  5
1c7
100
AcDbEntity
  8
Rendered
 62
7
100
AcDbLine
 10
356.168135
 20
130.239916
 30
0.0
 11
352.547671
 21
131.312252
 31
0.0
  0
LINE
  5
1c8
100
AcDbEntity
  8
Rendered
 62
7
100
AcDbLine
 10
352.547671
 20
131.312252
 30
0.0
 11
348.810991
 21
132.336148
 31
0.0
  0
LINE
  5
1c9
100
AcDbEntity
  8
Rendered
 62
7
100
AcDbLine
 10
348.810991
 20
132.336148
 30
0.0
 11
344.940711
 21
133.310908
 31
0.0
  0
LINE
  5
1ca
100
AcDbEntity
  8
Rendered
 62
7
100
AcDbLine
 10
344.940711
 20
133.310908
 30
0.0
 11
340.919439
 21
134.235844
 31
0.0
  0
LINE
  5
1cb
100
AcDbEntity
  8
Rendered
 62
7
100
AcDbLine
 10
340.919439
 20
134.235844
 30
0.0
 11
336.729783
 21
135.110252
 31
0.0
  0
LINE
  5
1cc
100
AcDbEntity
  8
Rendered
 62
7
100
AcDbLine
 10
336.729783
 20
135.110252
 30
0.0
 11
332.354367
 21
135.933420
 31
0.0
  0
LINE
  5
1cd
100
AcDbEntity
  8
Rendered
 62
7
100
AcDbLine
 10
332.354367
 20
135.933420
 30
0.0
 11
327.775807
 21
136.704668
 31
0.0
  0
LINE
  5
1ce
100
AcDbEntity
  8
Rendered
 62
7
100
AcDbLine
 10
327.775807
 20
136.704668
 30
0.0
 11
322.976703
 21
137.423292
 31
0.0
  0
LINE
  5
1cf
100
AcDbEntity
  8
Rendered
 62
7
100
AcDbLine
 10
322.976703
 20
137.423292
 30
0.0
 11
317.939687
 21
138.088596
 31
0.0
  0
LINE
  5
1d0
100
AcDbEntity
  8
Rendered
 62
7
100
AcDbLine
 10
317.939687
 20
138.088596
 30
0.0
 11
312.647359
 21
138.699868
 31
0.0
  0
LINE
  5
1d1
100
AcDbEntity
  8
Rendered
 62
7
100
AcDbLine
 10
312.647359
 20
138.699868
 30
0.0
 11
307.082335
 21
139.256428
 31
0.0
  0
LINE
  5
1d2
100
AcDbEntity
  8
Rendered
 62
7
100
AcDbLine
 10
307.082335
 20
139.256428
 30
0.0
 11
301.227231
 21
139.757564
 31
0.0
  0
LINE
  5
1d3
100
AcDbEntity
  8
Rendered
 62
7
100
AcDbLine
 10
301.227231
 20
139.757564
 30
0.0
 11
295.064655
 21
140.202580
 31
0.0
  0
LINE
  5
1d4
100
AcDbEntity
  8
Rendered
 62
7
100
AcDbLine
 10
295.064655
 20
140.202580
 30
0.0
 11
288.577231
 21
140.590780
 31
0.0
  0
LINE
  5
1d5
100
AcDbEntity
  8
Rendered
 62
7
100
AcDbLine
 10
288.577231
 20
140.590780
 30
0.0
 11
281.747575
 21
140.921468
 31
0.0
  0
LINE
  5
1d6
100
AcDbEntity
  8
Rendered
 62
7
100
AcDbLine
 10
281.747575
 20
140.921468
 30
0.0
 11
274.558287
 21
141.193948
 31
0.0
  0
LINE
  5
1d7
100
AcDbEntity
  8
Rendered
 62
7
100
AcDbLine
 10
274.558287
 20
141.193948
 30
0.0
 11
266.991983
 21
141.407508
 31
0.0
  0
LINE
  5
1d8
100
AcDbEntity
  8
Rendered
 62
7
100
AcDbLine
 10
266.991983
 20
141.407508
 30
0.0
 11
259.031287
 21
141.561460
 31
0.0
  0
LINE
  5
1d9
100
AcDbEntity
  8
Rendered
 62
7
100
AcDbLine
 10
259.031287
 20
141.561460
 30
0.0
 11
250.658807
 21
141.655100
 31
0.0
  0
LINE
  5
1da
100
AcDbEntity
  8
Rendered
 62
7
100
AcDbLine
 10
250.658807
 20
141.655100
 30
0.0
 11
241.857151
 21
141.687740
 31
0.0
  0
LINE
  5
1db
100
AcDbEntity
  8
Rendered
 62
7
100
AcDbLine
 10
241.857151
 20
141.687740
 30
0.0
 11
232.608943
 21
141.658700
 31
0.0
  0
LINE
  5
1dc
100
AcDbEntity
  8
Rendered
 62
7
100
AcDbLine
 10
232.608943
 20
141.658700
 30
0.0
 11
222.896791
 21
141.567228
 31
0.0
  0
LINE
  5
1dd
100
AcDbEntity
  8
Rendered
 62
7
100
AcDbLine
 10
222.896791
 20
141.567228
 30
0.0
 11
212.703311
 21
141.412652
 31
0.0
  0
LINE
  5
1de
100
AcDbEntity
  8
Rendered
 62
7
100
AcDbLine
 10
212.703311
 20
141.412652
 30
0.0
 11
202.011119
 21
141.194276
 31
0.0
  0
LINE
  5
1df
100
AcDbEntity
  8
Rendered
 62
7
100
AcDbLine
 10
202.011119
 20
141.194276
 30
0.0
 11
190.802823
 21
140.911396
 31
0.0
  0
LINE
  5
1e0
100
AcDbEntity
  8
Rendered
 62
7
100
AcDbLine
 10
190.802823
 20
140.911396
 30
0.0
 11
177.394407
 21
140.990356
 31
0.0
  0
LINE
  5
1e1
100
AcDbEntity
  8
Rendered
 62
7
100
AcDbLine
 10
177.394407
 20
140.990356
 30
0.0
 11
164.975687
 21
140.791716
 31
0.0
  0
LINE
  5
1e2
100
AcDbEntity
  8
Rendered
 62
7
100
AcDbLine
 10
164.975687
 20
140.791716
 30
0.0
 11
153.506111
 21
140.325708
 31
0.0
  0
LINE
  5
1e3
100
AcDbEntity
  8
Rendered
 62
7
100
AcDbLine
 10
153.506111
 20
140.325708
 30
0.0
 11
142.945119
 21
139.602572
 31
0.0
  0
LINE
  5
1e4
100
AcDbEntity
  8
Rendered
 62
7
100
AcDbLine
 10
142.945119
 20
139.602572
 30
0.0
 11
133.252159
 21
138.632500
 31
0.0
  0
LINE
  5
1e5
100
AcDbEntity
  8
Rendered
 62
7
100
AcDbLine
 10
133.252159
 20
138.632500
 30
0.0
 11
124.386671
 21
137.425724
 31
0.0
  0
LINE
  5
1e6
100
AcDbEntity
  8
Rendered
 62
7
100
AcDbLine
 10
124.386671
 20
137.425724
 30
0.0
 11
116.308119
 21
135.992452
 31
0.0
  0
LINE
  5
1e7
100
AcDbEntity
  8
Rendered
 62
7
100
AcDbLine
 10
116.308119
 20
135.992452
 30
0.0
 11
108.975927
 21
134.342900
 31
0.0
  0
LINE
  5
1e8
100
AcDbEntity
  8
Rendered
 62
7
100
AcDbLine
 10
108.975927
 20
134.342900
 30
0.0
 11
102.349559
 21
132.487276
 31
0.0
  0
LINE
  5
1e9
100
AcDbEntity
  8
Rendered
 62
7
100
AcDbLine
 10
102.349559
 20
132.487276
 30
0.0
 11
96.388455
 21
130.435812
 31
0.0
  0
LINE
  5
1ea
100
AcDbEntity
  8
Rendered
 62
7
100
AcDbLine
 10
96.388455
 20
130.435812
 30
0.0
 11
91.052063
 21
128.198700
 31
0.0
  0
LINE
  5
1eb
100
AcDbEntity
  8
Rendered
 62
7
100
AcDbLine
 10
91.052063
 20
128.198700
 30
0.0
 11
86.299823
 21
125.786180
 31
0.0
  0
LINE
  5
1ec
100
AcDbEntity
  8
Rendered
 62
7
100
AcDbLine
 10
86.299823
 20
125.786180
 30
0.0
 11
82.091183
 21
123.208444
 31
0.0
  0
LINE
  5
1ed
100
AcDbEntity
  8
Rendered
 62
7
100
AcDbLine
 10
82.091183
 20
123.208444
 30
0.0
 11
78.385592
 21
120.475724
 31
0.0
  0
LINE
  5
1ee
100
AcDbEntity
  8
Rendered
 62
7
100
AcDbLine
 10
78.385592
 20
120.475724
 30
0.0
 11
75.142496
 21
117.598228
 31
0.0
  0
LINE
  5
1ef
100
AcDbEntity
  8
Rendered
 62
7
100
AcDbLine
 10
75.142496
 20
117.598228
 30
0.0
 11
72.321341
 21
114.586164
 31
0.0
  0
LINE
  5
1f0
100
AcDbEntity
  8
Rendered
 62
7
100
AcDbLine
 10
72.321341
 20
114.586164
 30
0.0
 11
69.881572
 21
111.449764
 31
0.0
  0
LINE
  5
1f1
100
AcDbEntity
  8
Rendered
 62
7
100
AcDbLine
 10
69.881572
 20
111.449764
 30
0.0
 11
67.782636
 21
108.199228
 31
0.0
  0
LINE
  5
1f2
100
AcDbEntity
  8
Rendered
 62
7
100
AcDbLine
 10
67.782636
 20
108.199228
 30
0.0
 11
65.983979
 21
104.844780
 31
0.0
  0
LINE
  5
1f3
100
AcDbEntity
  8
Rendered
 62
7
100
AcDbLine
 10
65.983979
 20
104.844780
 30
0.0
 11
64.445048
 21
101.396620
 31
0.0
  0
LINE
  5
1f4
100
AcDbEntity
  8
Rendered
 62
7
100
AcDbLine
 10
64.445048
 20
101.396620
 30
0.0
 11
63.125287
 21
97.864988
 31
0.0
  0
LINE
  5
1f5
100
AcDbEntity
  8
Rendered
 62
7
100
AcDbLine
 10
63.125287
 20
97.864988
 30
0.0
 11
61.984145
 21
94.260076
 31
0.0
  0
LINE
  5
1f6
100
AcDbEntity
  8
Rendered
 62
7
100
AcDbLine
 10
61.984145
 20
94.260076
 30
0.0
 11
60.981066
 21
90.592108
 31
0.0
  0
LINE
  5
1f7
100
AcDbEntity
  8
Rendered
 62
7
100
AcDbLine
 10
60.981066
 20
90.592108
 30
0.0
 11
60.075496
 21
86.871300
 31
0.0
  0
LINE
  5
1f8
100
AcDbEntity
  8
Rendered
 62
7
100
AcDbLine
 10
60.075496
 20
86.871300
 30
0.0
 11
59.226882
 21
83.107868
 31
0.0
  0
LINE
  5
1f9
100
AcDbEntity
  8
Rendered
 62
7
100
AcDbLine
 10
59.226882
 20
83.107868
 30
0.0
 11
58.394671
 21
79.312028
 31
0.0
  0
LINE
  5
1fa
100
AcDbEntity
  8
Rendered
 62
7
100
AcDbLine
 10
58.394671
 20
79.312028
 30
0.0
 11
57.538309
 21
75.493980
 31
0.0
  0
LINE
  5
1fb
100
AcDbEntity
  8
Rendered
 62
7
100
AcDbLine
 10
57.538309
 20
75.493980
 30
0.0
 11
56.617241
 21
71.663964
 31
0.0
  0
LINE
  5
1fc
100
AcDbEntity
  8
Rendered
 62
7
100
AcDbLine
 10
56.617241
 20
71.663964
 30
0.0
 11
55.590913
 21
67.832172
 31
0.0
  0
LINE
  5
1fd
100
AcDbEntity
  8
Rendered
 62
7
100
AcDbLine
 10
55.590913
 20
67.832172
 30
0.0
 11
54.418773
 21
64.008828
 31
0.0
  0
LINE
  5
1fe
100
AcDbEntity
  8
Rendered
 62
7
100
AcDbLine
 10
54.418773
 20
64.008828
 30
0.0
 11
53.060265
 21
60.204156
 31
0.0
  0
LINE
  5
1ff
100
AcDbEntity
  8
Rendered
 62
7
100
AcDbLine
 10
53.060265
 20
60.204156
 30
0.0
 11
51.474837
 21
56.428356
 31
0.0
  0
LINE
  5
200
100
AcDbEntity
  8
Rendered
 62
7
100
AcDbLine
 10
51.474837
 20
56.428356
 30
0.0
 11
49.721270
 21
52.743564
 31
0.0
  0
LINE
  5
201
100
AcDbEntity
  8
Rendered
 62
7
100
AcDbLine
 10
49.721270
 20
52.743564
 30
0.0
 11
47.891162
 21
49.203876
 31
0.0
  0
LINE
  5
202
100
AcDbEntity
  8
Rendered
 62
7
100
AcDbLine
 10
47.891162
 20
49.203876
 30
0.0
 11
45.993182
 21
45.807444
 31
0.0
  0
LINE
  5
203
100
AcDbEntity
  8
Rendered
 62
7
100
AcDbLine
 10
45.993182
 20
45.807444
 30
0.0
 11
44.036002
 21
42.552420
 31
0.0
  0
LINE
  5
204
100
AcDbEntity
  8
Rendered
 62
7
100
AcDbLine
 10
44.036002
 20
42.552420
 30
0.0
 11
42.028290
 21
39.436972
 31
0.0
  0
LINE
  5
205
100
AcDbEntity
  8
Rendered
 62
7
100
AcDbLine
 10
42.028290
 20
39.436972
 30
0.0
 11
39.978719
 21
36.459212
 31
0.0
  0
LINE
  5
206
100
AcDbEntity
  8
Rendered
 62
7
100
AcDbLine
 10
39.978719
 20
36.459212
 30
0.0
 11
37.895957
 21
33.617372
 31
0.0
  0
LINE
  5
207
100
AcDbEntity
  8
Rendered
 62
7
100
AcDbLine
 10
37.895957
 20
33.617372
 30
0.0
 11
35.788675
 21
30.909532
 31
0.0
  0
LINE
  5
208
100
AcDbEntity
  8
Rendered
 62
7
100
AcDbLine
 10
35.788675
 20
30.909532
 30
0.0
 11
33.665544
 21
28.333932
 31
0.0
  0
LINE
  5
209
100
AcDbEntity
  8
Rendered
 62
7
100
AcDbLine
 10
33.665544
 20
28.333932
 30
0.0
 11
31.535234
 21
25.888652
 31
0.0
  0
LINE
  5
20a
100
AcDbEntity
  8
Rendered
 62
7
100
AcDbLine
 10
31.535234
 20
25.888652
 30
0.0
 11
29.406414
 21
23.571852
 31
0.0
  0
LINE
  5
20b
100
AcDbEntity
  8
Rendered
 62
7
100
AcDbLine
 10
29.406414
 20
23.571852
 30
0.0
 11
27.287755
 21
21.381692
 31
0.0
  0
LINE
  5
20c
100
AcDbEntity
  8
Rendered
 62
7
100
AcDbLine
 10
27.287755
 20
21.381692
 30
0.0
 11
25.187928
 21
19.316412
 31
0.0
  0
LINE
  5
20d
100
AcDbEntity
  8
Rendered
 62
7
100
AcDbLine
 10
25.187928
 20
19.316412
 30
0.0
 11
23.115603
 21
17.374012
 31
0.0
  0
LINE
  5
20e
100
AcDbEntity
  8
Rendered
 62
7
100
AcDbLine
 10
23.115603
 20
17.374012
 30
0.0
 11
21.079450
 21
15.552812
 31
0.0
  0
LINE
  5
20f
100
AcDbEntity
  8
Rendered
 62
7
100
AcDbLine
 10
21.079450
 20
15.552812
 30
0.0
 11
19.088140
 21
13.850892
 31
0.0
  0
LINE
  5
210
100
AcDbEntity
  8
Rendered
 62
7
100
AcDbLine
 10
19.088140
 20
13.850892
 30
0.0
 11
17.150342
 21
12.266332
 31
0.0
  0
LINE
  5
211
100
AcDbEntity
  8
Rendered
 62
7
100
AcDbLine
 10
17.150342
 20
12.266332
 30
0.0
 11
15.274727
 21
10.797452
 31
0.0
  0
LINE
  5
212
100
AcDbEntity
  8
Rendered
 62
7
100
AcDbLine
 10
15.274727
 20
10.797452
 30
0.0
 11
13.469966
 21
9.442252
 31
0.0
  0
LINE
  5
213
100
AcDbEntity
  8
Rendered
 62
7
100
AcDbLine
 10
13.469966
 20
9.442252
 30
0.0
 11
11.744727
 21
8.198972
 31
0.0
  0
LINE
  5
214
100
AcDbEntity
  8
Rendered
 62
7
100
AcDbLine
 10
11.744727
 20
8.198972
 30
0.0
 11
10.107682
 21
7.065772
 31
0.0
  0
LINE
  5
215
100
AcDbEntity
  8
Rendered
 62
7
100
AcDbLine
 10
10.107682
 20
7.065772
 30
0.0
 11
8.567502
 21
6.040812
 31
0.0
  0
LINE
  5
216
100
AcDbEntity
  8
Rendered
 62
7
100
AcDbLine
 10
8.567502
 20
6.040812
 30
0.0
 11
7.132857
 21
5.122172
 31
0.0
  0
LINE
  5
217
100
AcDbEntity
  8
Rendered
 62
7
100
AcDbLine
 10
7.132857
 20
5.122172
 30
0.0
 11
5.812416
 21
4.308092
 31
0.0
  0
LINE
  5
218
100
AcDbEntity
  8
Rendered
 62
7
100
AcDbLine
 10
5.812416
 20
4.308092
 30
0.0
 11
4.614849
 21
3.596652
 31
0.0
  0
LINE
  5
219
100
AcDbEntity
  8
Rendered
 62
7
100
AcDbLine
 10
4.614849
 20
3.596652
 30
0.0
 11
3.548828
 21
2.986092
 31
0.0
  0
LINE
  5
21a
100
AcDbEntity
  8
Rendered
 62
7
100
AcDbLine
 10
3.548828
 20
2.986092
 30
0.0
 11
2.623023
 21
2.474492
 31
0.0
  0
LINE
  5
21b
100
AcDbEntity
  8
Rendered
 62
7
100
AcDbLine
 10
2.623023
 20
2.474492
 30
0.0
 11
1.846103
 21
2.060092
 31
0.0
  0
LINE
  5
21c
100
AcDbEntity
  8
Rendered
 62
7
100
AcDbLine
 10
1.846103
 20
2.060092
 30
0.0
 11
1.226740
 21
1.740972
 31
0.0
  0
LINE
  5
21d
100
AcDbEntity
  8
Rendered
 62
7
100
AcDbLine
 10
1.226740
 20
1.740972
 30
0.0
 11
0.773603
 21
1.515292
 31
0.0
  0
LINE
  5
21e
100
AcDbEntity
  8
Rendered
 62
7
100
AcDbLine
 10
0.773603
 20
1.515292
 30
0.0
 11
0.495362
 21
1.381212
 31
0.0
  0
LINE
  5
21f
100
AcDbEntity
  8
Rendered
 62
7
100
AcDbLine
 10
0.495362
 20
1.381212
 30
0.0
 11
0.400689
 21
1.337212
 31
0.0
  0
LINE
  5
220
100
AcDbEntity
  8
Rendered
 62
7
100
AcDbLine
 10
0.400689
 20
1.337212
 30
0.0
 11
0.413300
 21
22.121292
 31
0.0
  0
LINE
  5
221
100
AcDbEntity
  8
Rendered
 62
7
100
AcDbLine
 10
0.413300
 20
22.121292
 30
0.0
 11
0.425910
 21
42.905380
 31
0.0
  0
LINE
  5
222
100
AcDbEntity
  8
Rendered
 62
7
100
AcDbLine
 10
0.425910
 20
42.905380
 30
0.0
 11
0.438522
 21
63.689468
 31
0.0
  0
LINE
  5
223
100
AcDbEntity
  8
Rendered
 62
7
100
AcDbLine
 10
0.438522
 20
63.689468
 30
0.0
 11
0.451132
 21
84.473548
 31
0.0
  0
LINE
  5
224
100
AcDbEntity
  8
Rendered
 62
7
100
AcDbLine
 10
0.451132
 20
84.473548
 30
0.0
 11
0.463743
 21
105.257636
 31
0.0
  0
LINE
  5
225
100
AcDbEntity
  8
Rendered
 62
7
100
AcDbLine
 10
0.463743
 20
105.257636
 30
0.0
 11
0.476354
 21
126.041716
 31
0.0
  0
LINE
  5
226
100
AcDbEntity
  8
Rendered
 62
7
100
AcDbLine
 10
0.476354
 20
126.041716
 30
0.0
 11
0.488965
 21
146.825804
 31
0.0
  0
LINE
  5
227
100
AcDbEntity
  8
Rendered
 62
7
100
AcDbLine
 10
0.488965
 20
146.825804
 30
0.0
 11
0.501576
 21
167.609884
 31
0.0
  0
LINE
  5
228
100
AcDbEntity
  8
Rendered
 62
7
100
AcDbLine
 10
0.501576
 20
167.609884
 30
0.0
 11
0.514187
 21
188.393972
 31
0.0
  0
LINE
  5
229
100
AcDbEntity
  8
Rendered
 62
7
100
AcDbLine
 10
0.514187
 20
188.393972
 30
0.0
 11
0.526798
 21
209.178060
 31
0.0
  0
LINE
  5
22a
100
AcDbEntity
  8
Rendered
 62
7
100
AcDbLine
 10
0.526798
 20
209.178060
 30
0.0
 11
0.539409
 21
229.962140
 31
0.0
  0
LINE
  5
22b
100
AcDbEntity
  8
Rendered
 62
7
100
AcDbLine
 10
0.539409
 20
229.962140
 30
0.0
 11
0.552020
 21
250.746228
 31
0.0
  0
LINE
  5
22c
100
AcDbEntity
  8
Rendered
 62
7
100
AcDbLine
 10
0.552020
 20
250.746228
 30
0.0
 11
0.564631
 21
271.530308
 31
0.0
  0
LINE
  5
22d
100
AcDbEntity
  8
Rendered
 62
7
100
AcDbLine
 10
0.564631
 20
271.530308
 30
0.0
 11
0.577242
 21
292.314396
 31
0.0
  0
LINE
  5
22e
100
AcDbEntity
  8
Rendered
 62
7
100
AcDbLine
 10
0.577242
 20
292.314396
 30
0.0
 11
0.589853
 21
313.098476
 31
0.0
  0
LINE
  5
22f
100
AcDbEntity
  8
Rendered
 62
7
100
AcDbLine
 10
0.589853
 20
313.098476
 30
0.0
 11
0.602464
 21
333.882564
 31
0.0
  0
LINE
  5
230
100
AcDbEntity
  8
Rendered
 62
7
100
AcDbLine
 10
0.602464
 20
333.882564
 30
0.0
 11
0.615075
 21
354.666652
 31
0.0
  0
LINE
  5
231
100
AcDbEntity
  8
Rendered
 62
7
100
AcDbLine
 10
0.615075
 20
354.666652
 30
0.0
 11
0.627686
 21
375.450732
 31
0.0
  0
LINE
  5
232
100
AcDbEntity
  8
Rendered
 62
7
100
AcDbLine
 10
0.627686
 20
375.450732
 30
0.0
 11
0.640297
 21
396.234820
 31
0.0
  0
LINE
  5
233
100
AcDbEntity
  8
Rendered
 62
7
100
AcDbLine
 10
0.640297
 20
396.234820
 30
0.0
 11
0.652908
 21
417.018900
 31
0.0
  0
LINE
  5
234
100
AcDbEntity
  8
Rendered
 62
7
100
AcDbLine
 10
0.652908
 20
417.018900
 30
0.0
 11
0.665519
 21
437.802988
 31
0.0
  0
LINE
  5
235
100
AcDbEntity
  8
Rendered
 62
7
100
AcDbLine
 10
0.665519
 20
437.802988
 30
0.0
 11
0.678130
 21
458.587068
 31
0.0
  0
LINE
  5
236
100
AcDbEntity
  8
Rendered
 62
7
100
AcDbLine
 10
0.678130
 20
458.587068
 30
0.0
 11
0.690741
 21
479.371156
 31
0.0
  0
LINE
  5
237
100
AcDbEntity
  8
Rendered
 62
7
100
AcDbLine
 10
0.690741
 20
479.371156
 30
0.0
 11
0.703352
 21
500.155244
 31
0.0
  0
LINE
  5
238
100
AcDbEntity
  8
Rendered
 62
7
100
AcDbLine
 10
0.703352
 20
500.155244
 30
0.0
 11
0.715963
 21
520.939324
 31
0.0
  0
LINE
  5
239
100
AcDbEntity
  8
Rendered
 62
7
100
AcDbLine
 10
0.715963
 20
520.939324
 30
0.0
 11
0.728574
 21
541.723412
 31
0.0
  0
LINE
  5
23a
100
AcDbEntity
  8
Rendered
 62
7
100
AcDbLine
 10
0.728574
 20
541.723412
 30
0.0
 11
0.741185
 21
562.507492
 31
0.0
  0
LINE
  5
23b
100
AcDbEntity
  8
Rendered
 62
7
100
AcDbLine
 10
0.741185
 20
562.507492
 30
0.0
 11
0.753796
 21
583.291580
 31
0.0
  0
LINE
  5
23c
100
AcDbEntity
  8
Rendered
 62
7
100
AcDbLine
 10
0.753796
 20
583.291580
 30
0.0
 11
0.766407
 21
604.075660
 31
0.0
  0
LINE
  5
23d
100
AcDbEntity
  8
Rendered
 62
7
100
AcDbLine
 10
0.766407
 20
604.075660
 30
0.0
 11
0.779018
 21
624.859748
 31
0.0
  0
LINE
  5
23e
100
AcDbEntity
  8
Rendered
 62
7
100
AcDbLine
 10
0.779018
 20
624.859748
 30
0.0
 11
0.791629
 21
645.643828
 31
0.0
  0
LINE
  5
23f
100
AcDbEntity
  8
Rendered
 62
7
100
AcDbLine
 10
0.791629
 20
645.643828
 30
0.0
 11
0.804233
 21
666.427588
 31
0.0
  0
ENDSEC
  0
SECTION
  2
OBJECTS
  0
DICTIONARY
  5
C
330
0
100
AcDbDictionary
  3
ACAD_GROUP
350
D
  3
ACAD_MLINESTYLE
350
17
  0
DICTIONARY
  5
D
330
C
100
AcDbDictionary
  0
DICTIONARY
  5
1A
330
C
100
AcDbDictionary
  0
DICTIONARY
  5
17
330
C
100
AcDbDictionary
  3
STANDARD
350
18
  0
DICTIONARY
  5
19
330
C
100
AcDbDictionary
  0
ENDSEC
  0
EOF
