<?xml version="1.0" encoding="UTF-8" standalone="no"?>
<!-- Created with Inkscape (http://www.inkscape.org/) -->

<svg
   xmlns:dc="http://purl.org/dc/elements/1.1/"
   xmlns:cc="http://creativecommons.org/ns#"
   xmlns:rdf="http://www.w3.org/1999/02/22-rdf-syntax-ns#"
   xmlns:svg="http://www.w3.org/2000/svg"
   xmlns="http://www.w3.org/2000/svg"
   xmlns:sodipodi="http://sodipodi.sourceforge.net/DTD/sodipodi-0.dtd"
   xmlns:inkscape="http://www.inkscape.org/namespaces/inkscape"
   width="210mm"
   height="297mm"
   viewBox="0 0 744.09448819 1052.3622047"
   id="svg2"
   version="1.1"
   inkscape:version="0.91 r13725"
   sodipodi:docname="drawing.svg">
  <defs
     id="defs4" />
  <sodipodi:namedview
     id="base"
     pagecolor="#ffffff"
     bordercolor="#666666"
     borderopacity="1.0"
     inkscape:pageopacity="0.0"
     inkscape:pageshadow="2"
     inkscape:zoom="0.98994949"
     inkscape:cx="-3.7314523"
     inkscape:cy="392.48264"
     inkscape:document-units="px"
     inkscape:current-layer="layer1"
     showgrid="false"
     inkscape:window-width="3200"
     inkscape:window-height="1671"
     inkscape:window-x="0"
     inkscape:window-y="55"
     inkscape:window-maximized="1" />
  <metadata
     id="metadata7">
    <rdf:RDF>
      <cc:Work
         rdf:about="">
        <dc:format>image/svg+xml</dc:format>
        <dc:type
           rdf:resource="http://purl.org/dc/dcmitype/StillImage" />
        <dc:title />
      </cc:Work>
    </rdf:RDF>
  </metadata>
  <g
     inkscape:label="Master"
     inkscape:groupmode="layer"
     id="layer1"
     style="display:inline">
    <path
       style="fill:none;fill-rule:evenodd;stroke:#000000;stroke-width:1px;stroke-linecap:butt;stroke-linejoin:miter;stroke-opacity:1"
       d="m 1.0052917,219.32772 c 0,0 72.1377383,-7.3789 75.9384893,91.72699 2.586527,67.44458 7.990429,311.86598 8.045326,431.88437 0.01314,28.72692 31.367223,67.40085 150.114593,71.47127 72.29552,2.47814 283.27296,14.90307 256.6303,-35.07306 -127.79219,-239.71177 146.65444,-45.40557 146.66545,71.66017 0.01,103.58369 -116.80043,69.66473 -163.75234,49.56964 C 430.61663,881.72236 391.46542,872.01822 238.50352,876.22302 52.946468,873.27484 87.175625,931.72081 64.343537,981.82687 41.511449,1031.9329 0.50085168,1050.6911 0.50085168,1050.6911 Z"
       id="path3334"
       inkscape:connector-curvature="0"
       sodipodi:nodetypes="cssssssczcc" />
  </g>
  <g
     inkscape:groupmode="layer"
     id="layer2"
     inkscape:label="Rendered"
     style="display:none">
    <path
       style="display:inline;fill:none;fill-rule:evenodd;stroke:#000000;stroke-width:1px;stroke-linecap:butt;stroke-linejoin:miter;stroke-opacity:1"
       d="m 1.005895,510.27319 0.0176,0.004 0.0519,0.0119 0.0852,0.0217 0.11737,0.0328 0.14843,0.0455 0.17838,0.0595 0.20723,0.0751 0.23498,0.092 0.26161,0.11048 0.28714,0.13035 0.31157,0.15167 0.33489,0.17446 0.3571,0.19868 0.37821,0.22436 0.39821,0.25148 0.4171,0.28007 0.4349,0.31009 0.45158,0.34157 0.46717,0.37449 0.48163,0.40887 0.495,0.4447 0.50727,0.48198 0.51842,0.5207 0.52847,0.56088 0.53742,0.60251 0.54526,0.64559 0.55198,0.69011 0.55762,0.73609 0.56214,0.78352 0.56555,0.83239 0.56787,0.88272 0.56906,0.9345 0.56917,0.98773 0.56816,1.0424 0.56605,1.09853 0.56283,1.15611 0.5585,1.21513 0.55308,1.27561 0.54654,1.33754 0.5389,1.40092 0.53015,1.46574 0.52029,1.53202 0.50934,1.59975 0.49728,1.66893 0.4841,1.73955 0.46983,1.81163 0.45444,1.88516 0.43796,1.96013 0.42037,2.03656 0.40166,2.11444 0.38186,2.19377 0.36096,2.27454 0.33893,2.35677 0.31581,2.44045 0.29159,2.52557 0.26625,2.61215 0.23981,2.70018 0.21227,2.78966 0.18362,2.88058 0.15386,2.97296 0.123,3.06679 0.091,3.16207 0.058,3.25879 0.0238,3.35697 -0.007,3.22447 -0.0325,3.32141 -0.0555,3.41384 -0.0766,3.50177 -0.0956,3.58521 -0.11252,3.66415 -0.12745,3.73858 -0.14034,3.80852 -0.15117,3.87396 -0.15999,3.9349 -0.16675,3.99135 -0.17147,4.04329 -0.17417,4.09073 -0.17482,4.13368 -0.17343,4.17212 -0.17001,4.20607 -0.16455,4.23553 -0.15704,4.26047 -0.1475,4.28092 -0.13593,4.29687 -0.1223,4.30833 -0.10665,4.31528 -0.089,4.31774 -0.0692,4.3157 -0.0475,4.30915 -0.0236,4.29811 0.002,4.28257 0.0301,4.26254 0.06,4.23799 0.092,4.20896 0.12598,4.17542 0.16202,4.13739 0.2001,4.09486 0.24022,4.04782 0.28237,3.99629 0.32657,3.94027 0.3728,3.87973 0.42107,3.81471 0.47138,3.74518 0.52373,3.67115 0.57811,3.59263 0.63454,3.50961 0.693,3.42209 0.7535,3.33006 0.81604,3.23355 0.88062,3.13253 0.94724,3.027 1.01589,2.917 1.08659,2.80248 1.15932,2.68346 1.23409,2.55995 1.3109,2.43194 1.38975,2.29943 1.47063,2.16242 1.55356,2.02091 1.63851,1.8749 1.72553,1.72439 1.81456,1.5694 1.90564,1.40988 1.99875,1.24589 2.09391,1.07738 2.19111,0.90438 2.29033,0.72689 2.39161,0.54488 5.81029,1.07746 5.80634,1.07885 5.80073,1.07866 5.79347,1.07687 5.78455,1.07348 5.77396,1.06849 5.76172,1.06192 5.747815,1.05373 5.73226,1.04396 5.71504,1.03259 5.69616,1.01962 5.67562,1.00506 5.65342,0.9889 5.62956,0.97114 5.60405,0.95179 5.57687,0.93084 5.54803,0.9083 5.51754,0.88415 5.48539,0.85842 5.45157,0.83108 5.4161,0.80215 5.37897,0.77162 5.34018,0.7395 5.29973,0.70578 5.25761,0.67047 5.21385,0.63355 5.16842,0.59504 5.12133,0.55494 5.07258,0.51324 5.02218,0.46994 4.97011,0.42504 4.91639,0.37855 4.86101,0.33047 4.80395,0.28078 4.74526,0.22951 4.6849,0.17662 4.62287,0.12216 4.55919,0.0661 4.49386,0.008 4.42685,-0.0508 4.35819,-0.1117 4.28788,-0.17415 4.2159,-0.23821 4.14226,-0.30385 4.06697,-0.37109 3.99001,-0.43994 3.9114,-0.51037 3.83113,-0.5824 3.74919,-0.65603 3.6656,-0.73126 3.58034,-0.80808 3.49344,-0.8865 3.40487,-0.96651 3.31463,-1.04812 3.22275,-1.13133 3.1292,-1.21613 3.034,-1.30253 2.93712,-1.39053 2.8386,-1.48012 2.73842,-1.57131 2.63657,-1.66409 2.53307,-1.75848 2.4279,-1.85445 2.32108,-1.95203 2.04726,-1.76707 2.05364,-1.69289 2.05878,-1.61844 2.06264,-1.54374 2.06527,-1.46876 2.06661,-1.39351 2.06671,-1.31801 2.06555,-1.24224 2.06313,-1.1662 2.05945,-1.08989 2.0545,-1.01333 2.04831,-0.93649 2.04085,-0.85938 2.03214,-0.78202 2.02216,-0.70439 2.01092,-0.62649 1.99844,-0.54832 1.98468,-0.4699 1.96967,-0.3912 1.9534,-0.31223 1.93587,-0.23301 1.91709,-0.15352 1.89704,-0.0738 1.87574,0.006 1.85317,0.0866 1.82935,0.16711 1.80427,0.24794 1.77793,0.32902 1.75033,0.41037 1.72148,0.49199 1.69136,0.57388 1.65998,0.65602 1.62734,0.73845 1.59346,0.82112 1.5583,0.90407 1.52189,0.98728 1.48423,1.07076 1.44529,1.15451 1.40511,1.23851 1.36366,1.3228 1.32095,1.40733 1.277,1.49214 1.23177,1.57721 1.18528,1.66255 1.13755,1.74816 1.08855,1.83402 1.03829,1.92016 0.98678,2.00657 0.93399,2.09323 0.87997,2.18016 0.82467,2.26736 0.76812,2.35482 0.7103,2.44256 0.65124,2.53055 0.59091,2.61881 0.52932,2.70734 0.46648,2.79613 0.40237,2.88519 0.337,2.97452 0.27039,3.0641 0.2025,3.15396 0.13336,3.24408 0.063,3.33447 -0.009,3.42512 -0.0192,1.55997 -0.0192,1.59219 -0.0216,1.62142 -0.0264,1.64766 -0.0337,1.67093 -0.0434,1.69121 -0.0554,1.70851 -0.0699,1.72283 -0.0868,1.73416 -0.10611,1.74251 -0.12784,1.74787 -0.15198,1.75026 -0.17852,1.74965 -0.20748,1.74607 -0.23885,1.73951 -0.27263,1.72996 -0.30883,1.71742 -0.34744,1.70191 -0.38846,1.68341 -0.4319,1.66193 -0.47774,1.63746 -0.526,1.61001 -0.57667,1.57958 -0.62976,1.54617 -0.68524,1.50977 -0.74316,1.47039 -0.80348,1.42803 -0.86621,1.38267 -0.93136,1.33435 -0.99892,1.28304 -1.06888,1.22873 -1.14127,1.17146 -1.21607,1.1112 -1.29327,1.04795 -1.37289,0.98172 -1.45493,0.91251 -1.53937,0.84032 -1.62623,0.76513 -1.7155,0.68698 -1.80718,0.60583 -1.90127,0.5217 -1.99778,0.43459 -2.09671,0.3445 -2.19803,0.25142 -2.30178,0.15536 -2.40794,0.0563 -2.5165,-0.0457 -2.62749,-0.15072 -2.74089,-0.25871 -2.85668,-0.36969 -2.97491,-0.48364 -3.09554,-0.60059 -3.21859,-0.72051 -3.34404,-0.84342 -3.47191,-0.96931 -3.60219,-1.09819 -3.73489,-1.23005 -3.86999,-1.36488 -4.00751,-1.50271 -4.14744,-1.64351 -4.28979,-1.78731 -4.43454,-1.93408 -4.58171,-2.08384 -4.73129,-2.23657 -4.51704,-2.09956 -4.70146,-2.04053 -4.87772,-1.98042 -5.04582,-1.91924 -5.20575,-1.85697 -5.35751,-1.79363 -5.50111,-1.72922 -5.63654,-1.66371 -5.7638,-1.59714 -5.8829,-1.52948 -5.99383,-1.46074 -6.0966,-1.39094 -6.1912,-1.32004 -6.27763,-1.24807 -6.3559,-1.17502 -6.42601,-1.10089 -6.48793,-1.02569 -6.54171,-0.9494 -6.58731,-0.87204 -6.62474,-0.79359 -6.65402,-0.71408 -6.67511,-0.63347 -6.68806,-0.5518 -6.69283,-0.46904 -6.68944,-0.38521 -6.67787,-0.30029 -6.65815,-0.2143 -6.63026,-0.12723 -6.5942,-0.0391 -6.54997,0.0501 -6.49758,0.14046 -6.43702,0.23184 -6.3683,0.3243 -6.29141,0.41785 -6.20636,0.51247 -6.11313,0.60817 -6.01175,0.70494 -5.90219,0.80281 -5.78447,0.90174 -5.658575,1.00175 -5.52454,1.10285 -5.38231,1.20501 -5.23193,1.30827 -5.07337,1.4126 -4.90666,1.518 -4.73178,1.62449 -4.54872,1.73205 -4.35751,1.8407 -4.15813,1.95042 -3.95058,2.06121 -3.73487,2.1731 -3.51098,2.28606 -3.27894,2.40009 -3.03873,2.5152 -2.79034,2.6314 -2.53381,2.74867 -2.26909,2.86702 -1.99621,2.98645 -1.71517,3.10695 -1.42596,3.22855 -1.12858,3.3512 -0.82305,3.47495 -0.50933,3.59978 -0.18746,3.72567 -0.0124,1.98297 -0.0116,1.87319 -0.0108,1.76804 -0.0102,1.66757 -0.01,1.57175 -0.009,1.48059 -0.009,1.39408 -0.008,1.31223 -0.008,1.23503 -0.007,1.1625 -0.007,1.09462 -0.007,1.0314 -0.007,0.97283 -0.007,0.91892 -0.007,0.86967 -0.007,0.82508 -0.007,0.78514 -0.008,0.74985 -0.008,0.71923 -0.008,0.69326 -0.009,0.67195 -0.009,0.6553 -0.01,0.6433 -0.0103,0.63595 -0.011,0.63328 -0.0117,0.63524 -0.0125,0.64188 -0.0134,0.65317 -0.0144,0.6691 -0.0154,0.68971 -0.0165,0.71496 -0.0176,0.74488 -0.0188,0.77945 -0.0201,0.81868 -0.0214,0.86256 -0.0228,0.9111 -0.0243,0.9643 -0.0258,1.02216 -0.0274,1.08467 -0.0291,1.15184 -0.0308,1.22366 -0.0326,1.30014 -0.0344,1.38129 -0.0364,1.46708 -0.0383,1.55753 -0.0404,1.65264 -0.0425,1.75241 -0.0447,1.85683 -0.0469,1.96592 -0.0492,2.07965 -0.0516,2.19804 -0.054,2.3211 -0.0565,2.4488 -0.0591,2.58116 -0.0618,2.71819 -0.0644,2.85987 -0.0672,3.0062 -0.07,3.1572 -0.0729,3.3128 -0.0759,3.4732 -0.0789,3.6381 -0.082,3.8077 -0.0851,3.982 -0.0884,4.161 -0.0285,0.6593 -0.0569,0.6575 -0.0844,0.6554 -0.11098,0.653 -0.13663,0.6502 -0.16135,0.6473 -0.18516,0.6441 -0.20803,0.6406 -0.22998,0.6367 -0.25102,0.6328 -0.27112,0.6284 -0.2903,0.6238 -0.30856,0.619 -0.3259,0.6138 -0.34231,0.6084 -0.35779,0.6027 -0.37236,0.5967 -0.38599,0.5906 -0.39871,0.584 -0.4105,0.5772 -0.42137,0.5702 -0.43132,0.5629 -0.44033,0.5553 -0.44843,0.5475 -0.4556,0.5392 -0.46185,0.5309 -0.46717,0.5222 -0.47158,0.5133 -0.47505,0.504 -0.47761,0.4945 -0.47923,0.4848 -0.47994,0.4747 -0.47972,0.4644 -0.47858,0.4538 -0.47652,0.4429 -0.47352,0.4318 -0.46961,0.4204 -0.46477,0.4088 -0.45901,0.3967 -0.45233,0.3846 -0.44472,0.3721 -0.43618,0.3592 -0.42673,0.3463 -0.41635,0.3329 -0.40504,0.3194 -0.39282,0.3055 -0.37966,0.2913 -0.36559,0.277 -0.35059,0.2623 -0.33466,0.2473 -0.31782,0.2321 -0.30005,0.2167 -0.28135,0.2008 -0.26173,0.1849 -0.24119,0.1685 -0.21973,0.1519 -0.19733,0.1351 -0.17402,0.1179 -0.14979004,0.1006 -0.12462,0.083 -0.0985,0.065 -0.0715,0.047 -0.0436,0.028 -0.0147,0.01 0.008,-8.4562 0.008,-8.4562 0.008,-8.4562 0.008,-8.4562 0.008,-8.4562 0.008,-8.4562 0.008,-8.45623 0.008,-8.4562 0.008,-8.45621 0.008,-8.4562 0.008,-8.4562 0.008,-8.45621 0.008,-8.4562 0.008,-8.45621 0.008,-8.4562 0.008,-8.45621 0.008,-8.4562 0.008,-8.4562 0.008,-8.45621 0.008,-8.4562 0.008,-8.45621 0.008,-8.4562 0.008,-8.4562 0.008,-8.45621 0.008,-8.4562 0.008,-8.45621 0.008,-8.4562 0.008,-8.4562 0.008,-8.45621 0.008,-8.4562 0.008,-8.45621 0.008,-8.4562 0.008,-8.4562 0.008,-8.45621 0.008,-8.4562 0.008,-8.45621 0.008,-8.4562 0.008,-8.4562 0.008,-8.45621 0.008,-8.4562 0.008,-8.45621 0.008,-8.4562 0.008,-8.4562 0.008,-8.45621 0.008,-8.4562 0.008,-8.45621 0.008,-8.4562 0.008,-8.45621 0.008,-8.4562 0.008,-8.4562 0.008,-8.45621 0.008,-8.4562 0.008,-8.45621 0.008,-8.4562 0.008,-8.4562 0.008,-8.45621 0.008,-8.4562 0.008,-8.45621 0.008,-8.4562 0.008,-8.4562 0.008,-8.45621 0.008,-8.4562 0.008,-8.45621 z"
       id="path3334-3"
       inkscape:connector-curvature="0"
       sodipodi:nodetypes="ccccccccccccccccccccccccccccccccccccccccccccccccccccccccccccccccccccccccccccccccccccccccccccccccccccccccccccccccccccccccccccccccccccccccccccccccccccccccccccccccccccccccccccccccccccccccccccccccccccccccccccccccccccccccccccccccccccccccccccccccccccccccccccccccccccccccccccccccccccccccccccccccccccccccccccccccccccccccccccccccccccccccccccccccccccccccccccccccccccccccccccccccccccccccccccccccccccccccccccccccccccccccccccccccccccccccccccccccccccccccccccccccccccccccccccccccccccccccccccccccccccccccccccccccccccccccccccccccccccccccccccccccccccccccccccccccccccccccccccccccccccccccccccccccc" />
  </g>
</svg>
