solid OpenSCAD_Model
  facet normal 0 0 -1
    outer loop
      vertex -50.3805 -74.2496 0
      vertex -47.3243 -69.7454 0
      vertex -46.9267 -74.8684 0
    endloop
  endfacet
  facet normal 0 0 -1
    outer loop
      vertex -46.9267 -74.8684 0
      vertex -47.3243 -69.7454 0
      vertex -46.5641 -69.8816 0
    endloop
  endfacet
  facet normal 0 0 -1
    outer loop
      vertex -46.9267 -74.8684 0
      vertex -46.5641 -69.8816 0
      vertex -37.1614 -69.5792 0
    endloop
  endfacet
  facet normal 0 0 -1
    outer loop
      vertex -37.1614 -69.5792 0
      vertex -28.0271 -67.3285 0
      vertex -46.9267 -74.8684 0
    endloop
  endfacet
  facet normal 0 0 -1
    outer loop
      vertex -28.0271 -67.3285 0
      vertex -8.66771 -61.0627 0
      vertex -46.9267 -74.8684 0
    endloop
  endfacet
  facet normal 0 0 -1
    outer loop
      vertex -0.437958 -11.9343 0
      vertex -1.25434 -11.9343 0
      vertex -3.7082 -11.4127 0
    endloop
  endfacet
  facet normal 0 0 -1
    outer loop
      vertex -0.437958 -11.9343 0
      vertex -3.7082 -11.4127 0
      vertex -6 -10.3923 0
    endloop
  endfacet
  facet normal 0 0 -1
    outer loop
      vertex -0.437958 -11.9343 0
      vertex -6 -10.3923 0
      vertex -8.02957 -8.91774 0
    endloop
  endfacet
  facet normal 0 0 -1
    outer loop
      vertex -8.02957 -8.91774 0
      vertex -9.7082 -7.05342 0
      vertex -0.437958 -11.9343 0
    endloop
  endfacet
  facet normal 0 0 -1
    outer loop
      vertex -0.437958 -11.9343 0
      vertex -9.7082 -7.05342 0
      vertex -10.9625 -4.88084 0
    endloop
  endfacet
  facet normal 0 0 -1
    outer loop
      vertex -0.437958 -11.9343 0
      vertex -10.9625 -4.88084 0
      vertex -11.7378 -2.49494 0
    endloop
  endfacet
  facet normal 0 0 -1
    outer loop
      vertex -0.437958 -11.9343 0
      vertex -11.7378 -2.49494 0
      vertex -12 0 0
    endloop
  endfacet
  facet normal 0 0 -1
    outer loop
      vertex -0.437958 -11.9343 0
      vertex -12 0 0
      vertex -11.8316 1.60194 0
    endloop
  endfacet
  facet normal 0 0 -1
    outer loop
      vertex -11.8316 1.60194 0
      vertex -13.9144 1.97512 0
      vertex -23.5953 5.91755 0
    endloop
  endfacet
  facet normal 0 0 -1
    outer loop
      vertex -11.8316 1.60194 0
      vertex -23.5953 5.91755 0
      vertex -32.2449 11.7866 0
    endloop
  endfacet
  facet normal 0 0 -1
    outer loop
      vertex -11.8316 1.60194 0
      vertex -32.2449 11.7866 0
      vertex -39.4853 19.3257 0
    endloop
  endfacet
  facet normal 0 0 -1
    outer loop
      vertex -11.8316 1.60194 0
      vertex -39.4853 19.3257 0
      vertex -45 28.2055 0
    endloop
  endfacet
  facet normal 0 0 -1
    outer loop
      vertex -35.5368 22.3932 0
      vertex -45 28.2055 0
      vertex -48.548 38.0378 0
    endloop
  endfacet
  facet normal 0 0 -1
    outer loop
      vertex -43.6932 39.234 0
      vertex -48.548 38.0378 0
      vertex -49.9742 48.3929 0
    endloop
  endfacet
  facet normal 0 0 -1
    outer loop
      vertex -44.9767 48.5536 0
      vertex -49.9742 48.3929 0
      vertex -49.2162 58.8182 0
    endloop
  endfacet
  facet normal 0 0 -1
    outer loop
      vertex -44.2946 57.9364 0
      vertex -49.2162 58.8182 0
      vertex -46.3073 68.8582 0
    endloop
  endfacet
  facet normal 0 0 -1
    outer loop
      vertex -41.6766 66.9723 0
      vertex -46.3073 68.8582 0
      vertex -41.3746 78.0739 0
    endloop
  endfacet
  facet normal 0 0 -1
    outer loop
      vertex -37.2371 75.2665 0
      vertex -41.3746 78.0739 0
      vertex -39.1117 80.7556 0
    endloop
  endfacet
  facet normal 0 0 -1
    outer loop
      vertex -41.6766 66.9723 0
      vertex -41.3746 78.0739 0
      vertex -37.2371 75.2665 0
    endloop
  endfacet
  facet normal 0 0 -1
    outer loop
      vertex -44.2946 57.9364 0
      vertex -46.3073 68.8582 0
      vertex -41.6766 66.9723 0
    endloop
  endfacet
  facet normal 0 0 -1
    outer loop
      vertex -44.9767 48.5536 0
      vertex -49.2162 58.8182 0
      vertex -44.2946 57.9364 0
    endloop
  endfacet
  facet normal 0 0 -1
    outer loop
      vertex -43.6932 39.234 0
      vertex -49.9742 48.3929 0
      vertex -44.9767 48.5536 0
    endloop
  endfacet
  facet normal 0 0 -1
    outer loop
      vertex -40.5 30.385 0
      vertex -48.548 38.0378 0
      vertex -43.6932 39.234 0
    endloop
  endfacet
  facet normal 0 0 -1
    outer loop
      vertex -35.5368 22.3932 0
      vertex -48.548 38.0378 0
      vertex -40.5 30.385 0
    endloop
  endfacet
  facet normal 0 0 -1
    outer loop
      vertex 6 -10.3923 0
      vertex 10.9625 4.88084 0
      vertex 8.02957 -8.91774 0
    endloop
  endfacet
  facet normal 0 0 -1
    outer loop
      vertex -29.0204 15.6079 0
      vertex -45 28.2055 0
      vertex -35.5368 22.3932 0
    endloop
  endfacet
  facet normal 0 0 -1
    outer loop
      vertex -21.2358 10.3258 0
      vertex -11.8316 1.60194 0
      vertex -29.0204 15.6079 0
    endloop
  endfacet
  facet normal 0 0 -1
    outer loop
      vertex -11.8316 1.60194 0
      vertex -45 28.2055 0
      vertex -29.0204 15.6079 0
    endloop
  endfacet
  facet normal 0 0 -1
    outer loop
      vertex -12.523 6.77761 0
      vertex -11.8316 1.60194 0
      vertex -21.2358 10.3258 0
    endloop
  endfacet
  facet normal 0 0 -1
    outer loop
      vertex -12.523 6.77761 0
      vertex -0.437958 -11.9343 0
      vertex -11.8316 1.60194 0
    endloop
  endfacet
  facet normal 0 0 -1
    outer loop
      vertex -10.1164 6.34641 0
      vertex -0.437958 -11.9343 0
      vertex -12.523 6.77761 0
    endloop
  endfacet
  facet normal 0 0 -1
    outer loop
      vertex -8.02957 8.91774 0
      vertex -0.437958 -11.9343 0
      vertex -9.7082 7.05342 0
    endloop
  endfacet
  facet normal 0 0 -1
    outer loop
      vertex -9.7082 7.05342 0
      vertex -0.437958 -11.9343 0
      vertex -10.1164 6.34641 0
    endloop
  endfacet
  facet normal 0 0 -1
    outer loop
      vertex 83.8013 -5.38495 0
      vertex 88.3013 -3.20551 0
      vertex 84.0634 -6.11138 0
    endloop
  endfacet
  facet normal 0 0 -1
    outer loop
      vertex -0.437958 -11.9343 0
      vertex -8.02957 8.91774 0
      vertex -6 10.3923 0
    endloop
  endfacet
  facet normal 0 0 -1
    outer loop
      vertex -0.437958 -11.9343 0
      vertex -6 10.3923 0
      vertex 0.391905 -14.234 0
    endloop
  endfacet
  facet normal 0 0 -1
    outer loop
      vertex 0.391905 -14.234 0
      vertex -6 10.3923 0
      vertex -3.7082 11.4127 0
    endloop
  endfacet
  facet normal 0 0 -1
    outer loop
      vertex 0.391905 -14.234 0
      vertex -1.25434 11.9343 0
      vertex 1.67548 -23.5536 0
    endloop
  endfacet
  facet normal 0 0 -1
    outer loop
      vertex -3.7082 11.4127 0
      vertex -1.25434 11.9343 0
      vertex 0.391905 -14.234 0
    endloop
  endfacet
  facet normal 0 0 -1
    outer loop
      vertex 1.67548 -23.5536 0
      vertex -1.25434 11.9343 0
      vertex 1.25434 11.9343 0
    endloop
  endfacet
  facet normal 0 0 -1
    outer loop
      vertex 1.67548 -23.5536 0
      vertex 1.25434 11.9343 0
      vertex 3.7082 11.4127 0
    endloop
  endfacet
  facet normal 0 0 -1
    outer loop
      vertex 1.67548 -23.5536 0
      vertex 3.7082 11.4127 0
      vertex 6 10.3923 0
    endloop
  endfacet
  facet normal 0 0 -1
    outer loop
      vertex 1.67548 -23.5536 0
      vertex 6 10.3923 0
      vertex 0.993353 -32.9364 0
    endloop
  endfacet
  facet normal 0 0 -1
    outer loop
      vertex 0.993353 -32.9364 0
      vertex 6 10.3923 0
      vertex 7.30314 9.44552 0
    endloop
  endfacet
  facet normal 0 0 -1
    outer loop
      vertex 6.6729 -23.3929 0
      vertex -1.62466 -41.9723 0
      vertex 0.993353 -32.9364 0
    endloop
  endfacet
  facet normal 0 0 -1
    outer loop
      vertex 12.1311 7.45641 0
      vertex 8.66771 11.0627 0
      vertex 16.9224 17.4753 0
    endloop
  endfacet
  facet normal 0 0 -1
    outer loop
      vertex 19.5603 13.2278 0
      vertex 16.9224 17.4753 0
      vertex 26.3299 22.0316 0
    endloop
  endfacet
  facet normal 0 0 -1
    outer loop
      vertex 28.0271 17.3285 0
      vertex 26.3299 22.0316 0
      vertex 36.4792 24.5324 0
    endloop
  endfacet
  facet normal 0 0 -1
    outer loop
      vertex 5.91498 -33.8182 0
      vertex -6.06414 -50.2665 0
      vertex -1.62466 -41.9723 0
    endloop
  endfacet
  facet normal 0 0 -1
    outer loop
      vertex 37.1614 19.5792 0
      vertex 36.4792 24.5324 0
      vertex 46.9267 24.8684 0
    endloop
  endfacet
  facet normal 0 0 -1
    outer loop
      vertex 46.5641 19.8816 0
      vertex 46.9267 24.8684 0
      vertex 57.2157 23.0249 0
    endloop
  endfacet
  facet normal 0 0 -1
    outer loop
      vertex 3.00607 -43.8582 0
      vertex -12.1311 -57.4564 0
      vertex -6.06414 -50.2665 0
    endloop
  endfacet
  facet normal 0 0 -1
    outer loop
      vertex 55.8242 18.2224 0
      vertex 57.2157 23.0249 0
      vertex 66.8966 19.0825 0
    endloop
  endfacet
  facet normal 0 0 -1
    outer loop
      vertex 64.537 14.6742 0
      vertex 66.8966 19.0825 0
      vertex 75.5462 13.2134 0
    endloop
  endfacet
  facet normal 0 0 -1
    outer loop
      vertex 72.3217 9.39207 0
      vertex 75.5462 13.2134 0
      vertex 82.7866 5.67426 0
    endloop
  endfacet
  facet normal 0 0 -1
    outer loop
      vertex 83.8013 -5.38495 0
      vertex 82.7866 5.67426 0
      vertex 88.3013 -3.20551 0
    endloop
  endfacet
  facet normal 0 0 -1
    outer loop
      vertex 84.0634 -6.11138 0
      vertex 88.3013 -3.20551 0
      vertex 89.4923 -6.50606 0
    endloop
  endfacet
  facet normal 0 0 -1
    outer loop
      vertex 78.8381 2.60683 0
      vertex 82.7866 5.67426 0
      vertex 83.8013 -5.38495 0
    endloop
  endfacet
  facet normal 0 0 -1
    outer loop
      vertex 72.3217 9.39207 0
      vertex 82.7866 5.67426 0
      vertex 78.8381 2.60683 0
    endloop
  endfacet
  facet normal 0 0 -1
    outer loop
      vertex 64.537 14.6742 0
      vertex 75.5462 13.2134 0
      vertex 72.3217 9.39207 0
    endloop
  endfacet
  facet normal 0 0 -1
    outer loop
      vertex 55.8242 18.2224 0
      vertex 66.8966 19.0825 0
      vertex 64.537 14.6742 0
    endloop
  endfacet
  facet normal 0 0 -1
    outer loop
      vertex 46.5641 19.8816 0
      vertex 57.2157 23.0249 0
      vertex 55.8242 18.2224 0
    endloop
  endfacet
  facet normal 0 0 -1
    outer loop
      vertex 37.1614 19.5792 0
      vertex 46.9267 24.8684 0
      vertex 46.5641 19.8816 0
    endloop
  endfacet
  facet normal 0 0 -1
    outer loop
      vertex 28.0271 17.3285 0
      vertex 36.4792 24.5324 0
      vertex 37.1614 19.5792 0
    endloop
  endfacet
  facet normal 0 0 -1
    outer loop
      vertex 19.5603 13.2278 0
      vertex 26.3299 22.0316 0
      vertex 28.0271 17.3285 0
    endloop
  endfacet
  facet normal 0 0 -1
    outer loop
      vertex 12.1311 7.45641 0
      vertex 16.9224 17.4753 0
      vertex 19.5603 13.2278 0
    endloop
  endfacet
  facet normal 0 0 -1
    outer loop
      vertex 10.5544 5.58785 0
      vertex 8.66771 11.0627 0
      vertex 12.1311 7.45641 0
    endloop
  endfacet
  facet normal 0 0 -1
    outer loop
      vertex 6 -10.3923 0
      vertex 8.66771 11.0627 0
      vertex 10.5544 5.58785 0
    endloop
  endfacet
  facet normal 0 0 -1
    outer loop
      vertex 5.2467 -13.0378 0
      vertex 0.993353 -32.9364 0
      vertex 4.52849 -11.0475 0
    endloop
  endfacet
  facet normal 0 0 -1
    outer loop
      vertex 9.7082 -7.05342 0
      vertex 12 0 0
      vertex 11.7378 -2.49494 0
    endloop
  endfacet
  facet normal 0 0 -1
    outer loop
      vertex 11.7378 2.49494 0
      vertex 8.02957 -8.91774 0
      vertex 10.9625 4.88084 0
    endloop
  endfacet
  facet normal 0 0 -1
    outer loop
      vertex 8.02957 -8.91774 0
      vertex 12 0 0
      vertex 9.7082 -7.05342 0
    endloop
  endfacet
  facet normal 0 0 -1
    outer loop
      vertex 5.91498 -33.8182 0
      vertex -1.62466 -41.9723 0
      vertex 6.6729 -23.3929 0
    endloop
  endfacet
  facet normal 0 0 -1
    outer loop
      vertex 8.02957 -8.91774 0
      vertex 11.7378 2.49494 0
      vertex 12 0 0
    endloop
  endfacet
  facet normal 0 0 -1
    outer loop
      vertex 9.7082 -7.05342 0
      vertex 11.7378 -2.49494 0
      vertex 10.9625 -4.88084 0
    endloop
  endfacet
  facet normal 0 0 -1
    outer loop
      vertex 6 -10.3923 0
      vertex 10.5544 5.58785 0
      vertex 10.9625 4.88084 0
    endloop
  endfacet
  facet normal 0 0 -1
    outer loop
      vertex 4.52849 -11.0475 0
      vertex 8.66771 11.0627 0
      vertex 6 -10.3923 0
    endloop
  endfacet
  facet normal 0 0 -1
    outer loop
      vertex 7.30314 9.44552 0
      vertex 8.66771 11.0627 0
      vertex 4.52849 -11.0475 0
    endloop
  endfacet
  facet normal 0 0 -1
    outer loop
      vertex 7.30314 9.44552 0
      vertex 4.52849 -11.0475 0
      vertex 0.993353 -32.9364 0
    endloop
  endfacet
  facet normal 0 0 -1
    outer loop
      vertex 6.6729 -23.3929 0
      vertex 0.993353 -32.9364 0
      vertex 5.2467 -13.0378 0
    endloop
  endfacet
  facet normal 0 0 -1
    outer loop
      vertex 3.00607 -43.8582 0
      vertex -6.06414 -50.2665 0
      vertex 5.91498 -33.8182 0
    endloop
  endfacet
  facet normal 0 0 -1
    outer loop
      vertex -1.92668 -53.0739 0
      vertex -19.5603 -63.2278 0
      vertex -12.1311 -57.4564 0
    endloop
  endfacet
  facet normal 0 0 -1
    outer loop
      vertex -1.92668 -53.0739 0
      vertex -12.1311 -57.4564 0
      vertex 3.00607 -43.8582 0
    endloop
  endfacet
  facet normal 0 0 -1
    outer loop
      vertex -8.66771 -61.0627 0
      vertex -19.5603 -63.2278 0
      vertex -1.92668 -53.0739 0
    endloop
  endfacet
  facet normal 0 0 -1
    outer loop
      vertex -19.5603 -63.2278 0
      vertex -8.66771 -61.0627 0
      vertex -28.0271 -67.3285 0
    endloop
  endfacet
  facet normal 0 0 -1
    outer loop
      vertex -46.9267 -74.8684 0
      vertex -8.66771 -61.0627 0
      vertex -16.9224 -67.4753 0
    endloop
  endfacet
  facet normal 0 0 -1
    outer loop
      vertex -46.9267 -74.8684 0
      vertex -16.9224 -67.4753 0
      vertex -26.3299 -72.0316 0
    endloop
  endfacet
  facet normal 0 0 -1
    outer loop
      vertex -46.9267 -74.8684 0
      vertex -26.3299 -72.0316 0
      vertex -36.4792 -74.5324 0
    endloop
  endfacet
  facet normal 0 0 -1
    outer loop
      vertex -37.2371 75.2665 0
      vertex -39.1117 80.7556 0
      vertex -36.7391 75.8567 0
    endloop
  endfacet
  facet normal -0.827492 0.561478 0
    outer loop
      vertex -47.3243 -69.7454 30
      vertex -47.3243 -69.7454 0
      vertex -50.3805 -74.2496 30
    endloop
  endfacet
  facet normal -0.827492 0.561478 0
    outer loop
      vertex -50.3805 -74.2496 30
      vertex -47.3243 -69.7454 0
      vertex -50.3805 -74.2496 0
    endloop
  endfacet
  facet normal -0.176364 -0.984325 0
    outer loop
      vertex -50.3805 -74.2496 30
      vertex -50.3805 -74.2496 0
      vertex -46.9267 -74.8684 0
    endloop
  endfacet
  facet normal -0.176364 -0.984325 0
    outer loop
      vertex -46.9267 -74.8684 30
      vertex -50.3805 -74.2496 30
      vertex -46.9267 -74.8684 0
    endloop
  endfacet
  facet normal 0.0321423 -0.999483 0
    outer loop
      vertex -46.9267 -74.8684 30
      vertex -46.9267 -74.8684 0
      vertex -36.4792 -74.5324 0
    endloop
  endfacet
  facet normal 0.0321423 -0.999483 0
    outer loop
      vertex -36.4792 -74.5324 30
      vertex -46.9267 -74.8684 30
      vertex -36.4792 -74.5324 0
    endloop
  endfacet
  facet normal 0.239244 -0.970959 0
    outer loop
      vertex -36.4792 -74.5324 30
      vertex -36.4792 -74.5324 0
      vertex -26.3299 -72.0316 0
    endloop
  endfacet
  facet normal 0.239244 -0.970959 0
    outer loop
      vertex -26.3299 -72.0316 30
      vertex -36.4792 -74.5324 30
      vertex -26.3299 -72.0316 0
    endloop
  endfacet
  facet normal 0.43589 -0.9 0
    outer loop
      vertex -26.3299 -72.0316 30
      vertex -26.3299 -72.0316 0
      vertex -16.9224 -67.4753 0
    endloop
  endfacet
  facet normal 0.43589 -0.9 0
    outer loop
      vertex -16.9224 -67.4753 30
      vertex -26.3299 -72.0316 30
      vertex -16.9224 -67.4753 0
    endloop
  endfacet
  facet normal 0.613485 -0.789706 0
    outer loop
      vertex -16.9224 -67.4753 30
      vertex -16.9224 -67.4753 0
      vertex -8.66771 -61.0627 0
    endloop
  endfacet
  facet normal 0.613485 -0.789706 0
    outer loop
      vertex -8.66771 -61.0627 30
      vertex -16.9224 -67.4753 30
      vertex -8.66771 -61.0627 0
    endloop
  endfacet
  facet normal 0.764268 -0.644899 0
    outer loop
      vertex -8.66771 -61.0627 30
      vertex -8.66771 -61.0627 0
      vertex -1.92668 -53.0739 0
    endloop
  endfacet
  facet normal 0.764268 -0.644899 0
    outer loop
      vertex -1.92668 -53.0739 30
      vertex -8.66771 -61.0627 30
      vertex -1.92668 -53.0739 0
    endloop
  endfacet
  facet normal 0.881649 -0.471906 0
    outer loop
      vertex -1.92668 -53.0739 30
      vertex -1.92668 -53.0739 0
      vertex 3.00607 -43.8582 0
    endloop
  endfacet
  facet normal 0.881649 -0.471906 0
    outer loop
      vertex 3.00607 -43.8582 30
      vertex -1.92668 -53.0739 30
      vertex 3.00607 -43.8582 0
    endloop
  endfacet
  facet normal 0.960498 -0.278288 0
    outer loop
      vertex 3.00607 -43.8582 30
      vertex 3.00607 -43.8582 0
      vertex 5.91498 -33.8182 0
    endloop
  endfacet
  facet normal 0.960498 -0.278288 0
    outer loop
      vertex 5.91498 -33.8182 30
      vertex 3.00607 -43.8582 30
      vertex 5.91498 -33.8182 0
    endloop
  endfacet
  facet normal 0.997368 -0.0725083 0
    outer loop
      vertex 5.91498 -33.8182 30
      vertex 5.91498 -33.8182 0
      vertex 6.6729 -23.3929 0
    endloop
  endfacet
  facet normal 0.997368 -0.0725083 0
    outer loop
      vertex 6.6729 -23.3929 30
      vertex 5.91498 -33.8182 30
      vertex 6.6729 -23.3929 0
    endloop
  endfacet
  facet normal 0.990648 0.136441 0
    outer loop
      vertex 6.6729 -23.3929 0
      vertex 5.2467 -13.0378 0
      vertex 5.2467 -13.0378 30
    endloop
  endfacet
  facet normal 0.990648 0.136441 0
    outer loop
      vertex 6.6729 -23.3929 30
      vertex 6.6729 -23.3929 0
      vertex 5.2467 -13.0378 30
    endloop
  endfacet
  facet normal 0.940633 0.339426 0
    outer loop
      vertex 5.2467 -13.0378 0
      vertex 4.52849 -11.0475 0
      vertex 4.52849 -11.0475 30
    endloop
  endfacet
  facet normal 0.940633 0.339426 0
    outer loop
      vertex 5.2467 -13.0378 30
      vertex 5.2467 -13.0378 0
      vertex 4.52849 -11.0475 30
    endloop
  endfacet
  facet normal 0.406737 -0.913546 0
    outer loop
      vertex 3.7082 -11.4127 35
      vertex 3.7082 -11.4127 30
      vertex 4.52849 -11.0475 30
    endloop
  endfacet
  facet normal 0.406737 -0.913546 0
    outer loop
      vertex 6 -10.3923 35
      vertex 3.7082 -11.4127 35
      vertex 4.52849 -11.0475 30
    endloop
  endfacet
  facet normal 0.406737 -0.913546 0
    outer loop
      vertex 4.52849 -11.0475 0
      vertex 6 -10.3923 0
      vertex 4.52849 -11.0475 30
    endloop
  endfacet
  facet normal 0.406737 -0.913546 0
    outer loop
      vertex 6 -10.3923 0
      vertex 6 -10.3923 35
      vertex 4.52849 -11.0475 30
    endloop
  endfacet
  facet normal 0.587785 -0.809017 0
    outer loop
      vertex 6 -10.3923 35
      vertex 6 -10.3923 0
      vertex 8.02957 -8.91774 0
    endloop
  endfacet
  facet normal 0.587785 -0.809017 0
    outer loop
      vertex 8.02957 -8.91774 35
      vertex 6 -10.3923 35
      vertex 8.02957 -8.91774 0
    endloop
  endfacet
  facet normal 0.743145 -0.669131 0
    outer loop
      vertex 8.02957 -8.91774 35
      vertex 8.02957 -8.91774 0
      vertex 9.7082 -7.05342 0
    endloop
  endfacet
  facet normal 0.743145 -0.669131 0
    outer loop
      vertex 9.7082 -7.05342 35
      vertex 8.02957 -8.91774 35
      vertex 9.7082 -7.05342 0
    endloop
  endfacet
  facet normal 0.866025 -0.5 0
    outer loop
      vertex 9.7082 -7.05342 35
      vertex 9.7082 -7.05342 0
      vertex 10.9625 -4.88084 0
    endloop
  endfacet
  facet normal 0.866025 -0.5 0
    outer loop
      vertex 10.9625 -4.88084 35
      vertex 9.7082 -7.05342 35
      vertex 10.9625 -4.88084 0
    endloop
  endfacet
  facet normal 0.951057 -0.309017 0
    outer loop
      vertex 10.9625 -4.88084 35
      vertex 10.9625 -4.88084 0
      vertex 11.7378 -2.49494 0
    endloop
  endfacet
  facet normal 0.951057 -0.309017 0
    outer loop
      vertex 11.7378 -2.49494 35
      vertex 10.9625 -4.88084 35
      vertex 11.7378 -2.49494 0
    endloop
  endfacet
  facet normal 0.994522 -0.104529 0
    outer loop
      vertex 11.7378 -2.49494 35
      vertex 11.7378 -2.49494 0
      vertex 12 0 0
    endloop
  endfacet
  facet normal 0.994522 -0.104529 0
    outer loop
      vertex 12 0 35
      vertex 11.7378 -2.49494 35
      vertex 12 0 0
    endloop
  endfacet
  facet normal 0.994522 0.104529 0
    outer loop
      vertex 12 0 0
      vertex 11.7378 2.49494 0
      vertex 11.7378 2.49494 35
    endloop
  endfacet
  facet normal 0.994522 0.104529 0
    outer loop
      vertex 12 0 35
      vertex 12 0 0
      vertex 11.7378 2.49494 35
    endloop
  endfacet
  facet normal 0.951057 0.309017 0
    outer loop
      vertex 11.7378 2.49494 0
      vertex 10.9625 4.88084 0
      vertex 10.9625 4.88084 35
    endloop
  endfacet
  facet normal 0.951057 0.309017 0
    outer loop
      vertex 11.7378 2.49494 35
      vertex 11.7378 2.49494 0
      vertex 10.9625 4.88084 35
    endloop
  endfacet
  facet normal 0.866025 0.5 0
    outer loop
      vertex 10.5544 5.58785 30
      vertex 9.7082 7.05342 30
      vertex 9.7082 7.05342 35
    endloop
  endfacet
  facet normal 0.866025 0.5 0
    outer loop
      vertex 10.9625 4.88084 0
      vertex 10.5544 5.58785 30
      vertex 10.9625 4.88084 35
    endloop
  endfacet
  facet normal 0.866025 0.5 0
    outer loop
      vertex 10.9625 4.88084 35
      vertex 10.5544 5.58785 30
      vertex 9.7082 7.05342 35
    endloop
  endfacet
  facet normal 0.866025 0.5 0
    outer loop
      vertex 10.5544 5.58785 0
      vertex 10.5544 5.58785 30
      vertex 10.9625 4.88084 0
    endloop
  endfacet
  facet normal 0.764268 -0.644899 0
    outer loop
      vertex 12.1311 7.45641 0
      vertex 12.1311 7.45641 30
      vertex 10.5544 5.58785 30
    endloop
  endfacet
  facet normal 0.764268 -0.644899 0
    outer loop
      vertex 10.5544 5.58785 0
      vertex 12.1311 7.45641 0
      vertex 10.5544 5.58785 30
    endloop
  endfacet
  facet normal 0.613485 -0.789706 0
    outer loop
      vertex 19.5603 13.2278 0
      vertex 19.5603 13.2278 30
      vertex 12.1311 7.45641 30
    endloop
  endfacet
  facet normal 0.613485 -0.789706 0
    outer loop
      vertex 12.1311 7.45641 0
      vertex 19.5603 13.2278 0
      vertex 12.1311 7.45641 30
    endloop
  endfacet
  facet normal 0.43589 -0.9 0
    outer loop
      vertex 28.0271 17.3285 0
      vertex 28.0271 17.3285 30
      vertex 19.5603 13.2278 30
    endloop
  endfacet
  facet normal 0.43589 -0.9 0
    outer loop
      vertex 19.5603 13.2278 0
      vertex 28.0271 17.3285 0
      vertex 19.5603 13.2278 30
    endloop
  endfacet
  facet normal 0.239244 -0.970959 0
    outer loop
      vertex 37.1614 19.5792 0
      vertex 37.1614 19.5792 30
      vertex 28.0271 17.3285 30
    endloop
  endfacet
  facet normal 0.239244 -0.970959 0
    outer loop
      vertex 28.0271 17.3285 0
      vertex 37.1614 19.5792 0
      vertex 28.0271 17.3285 30
    endloop
  endfacet
  facet normal 0.0321423 -0.999483 0
    outer loop
      vertex 46.5641 19.8816 0
      vertex 46.5641 19.8816 30
      vertex 37.1614 19.5792 30
    endloop
  endfacet
  facet normal 0.0321423 -0.999483 0
    outer loop
      vertex 37.1614 19.5792 0
      vertex 46.5641 19.8816 0
      vertex 37.1614 19.5792 30
    endloop
  endfacet
  facet normal -0.176364 -0.984325 0
    outer loop
      vertex 55.8242 18.2224 0
      vertex 55.8242 18.2224 30
      vertex 46.5641 19.8816 30
    endloop
  endfacet
  facet normal -0.176364 -0.984325 0
    outer loop
      vertex 46.5641 19.8816 0
      vertex 55.8242 18.2224 0
      vertex 46.5641 19.8816 30
    endloop
  endfacet
  facet normal -0.377163 -0.926147 0
    outer loop
      vertex 64.537 14.6742 0
      vertex 64.537 14.6742 30
      vertex 55.8242 18.2224 30
    endloop
  endfacet
  facet normal -0.377163 -0.926147 0
    outer loop
      vertex 55.8242 18.2224 0
      vertex 64.537 14.6742 0
      vertex 55.8242 18.2224 30
    endloop
  endfacet
  facet normal -0.561478 -0.827492 0
    outer loop
      vertex 72.3217 9.39207 0
      vertex 72.3217 9.39207 30
      vertex 64.537 14.6742 30
    endloop
  endfacet
  facet normal -0.561478 -0.827492 0
    outer loop
      vertex 64.537 14.6742 0
      vertex 72.3217 9.39207 0
      vertex 64.537 14.6742 30
    endloop
  endfacet
  facet normal -0.721253 -0.692671 0
    outer loop
      vertex 78.8381 2.60683 30
      vertex 72.3217 9.39207 30
      vertex 78.8381 2.60683 0
    endloop
  endfacet
  facet normal -0.721253 -0.692671 0
    outer loop
      vertex 78.8381 2.60683 0
      vertex 72.3217 9.39207 30
      vertex 72.3217 9.39207 0
    endloop
  endfacet
  facet normal -0.849507 -0.527578 0
    outer loop
      vertex 83.8013 -5.38495 30
      vertex 78.8381 2.60683 30
      vertex 83.8013 -5.38495 0
    endloop
  endfacet
  facet normal -0.849507 -0.527578 0
    outer loop
      vertex 83.8013 -5.38495 0
      vertex 78.8381 2.60683 30
      vertex 78.8381 2.60683 0
    endloop
  endfacet
  facet normal -0.940633 -0.339426 0
    outer loop
      vertex 84.0634 -6.11138 30
      vertex 83.8013 -5.38495 30
      vertex 84.0634 -6.11138 0
    endloop
  endfacet
  facet normal -0.940633 -0.339426 0
    outer loop
      vertex 84.0634 -6.11138 0
      vertex 83.8013 -5.38495 30
      vertex 83.8013 -5.38495 0
    endloop
  endfacet
  facet normal -0.0725083 -0.997368 0
    outer loop
      vertex 89.4923 -6.50606 0
      vertex 89.4923 -6.50606 30
      vertex 84.0634 -6.11138 30
    endloop
  endfacet
  facet normal -0.0725083 -0.997368 0
    outer loop
      vertex 84.0634 -6.11138 0
      vertex 89.4923 -6.50606 0
      vertex 84.0634 -6.11138 30
    endloop
  endfacet
  facet normal 0.940633 0.339426 0
    outer loop
      vertex 89.4923 -6.50606 0
      vertex 88.3013 -3.20551 0
      vertex 88.3013 -3.20551 30
    endloop
  endfacet
  facet normal 0.940633 0.339426 0
    outer loop
      vertex 89.4923 -6.50606 30
      vertex 89.4923 -6.50606 0
      vertex 88.3013 -3.20551 30
    endloop
  endfacet
  facet normal 0.849507 0.527578 0
    outer loop
      vertex 88.3013 -3.20551 0
      vertex 82.7866 5.67426 0
      vertex 82.7866 5.67426 30
    endloop
  endfacet
  facet normal 0.849507 0.527578 0
    outer loop
      vertex 88.3013 -3.20551 30
      vertex 88.3013 -3.20551 0
      vertex 82.7866 5.67426 30
    endloop
  endfacet
  facet normal 0.721254 0.692671 0
    outer loop
      vertex 82.7866 5.67426 0
      vertex 75.5462 13.2134 0
      vertex 75.5462 13.2134 30
    endloop
  endfacet
  facet normal 0.721254 0.692671 0
    outer loop
      vertex 82.7866 5.67426 30
      vertex 82.7866 5.67426 0
      vertex 75.5462 13.2134 30
    endloop
  endfacet
  facet normal 0.561478 0.827492 0
    outer loop
      vertex 66.8966 19.0825 0
      vertex 66.8966 19.0825 30
      vertex 75.5462 13.2134 0
    endloop
  endfacet
  facet normal 0.561478 0.827492 0
    outer loop
      vertex 75.5462 13.2134 0
      vertex 66.8966 19.0825 30
      vertex 75.5462 13.2134 30
    endloop
  endfacet
  facet normal 0.377163 0.926147 0
    outer loop
      vertex 57.2157 23.0249 0
      vertex 57.2157 23.0249 30
      vertex 66.8966 19.0825 0
    endloop
  endfacet
  facet normal 0.377163 0.926147 0
    outer loop
      vertex 66.8966 19.0825 0
      vertex 57.2157 23.0249 30
      vertex 66.8966 19.0825 30
    endloop
  endfacet
  facet normal 0.176364 0.984325 0
    outer loop
      vertex 46.9267 24.8684 0
      vertex 46.9267 24.8684 30
      vertex 57.2157 23.0249 0
    endloop
  endfacet
  facet normal 0.176364 0.984325 0
    outer loop
      vertex 57.2157 23.0249 0
      vertex 46.9267 24.8684 30
      vertex 57.2157 23.0249 30
    endloop
  endfacet
  facet normal -0.0321423 0.999483 0
    outer loop
      vertex 36.4792 24.5324 0
      vertex 36.4792 24.5324 30
      vertex 46.9267 24.8684 0
    endloop
  endfacet
  facet normal -0.0321423 0.999483 0
    outer loop
      vertex 46.9267 24.8684 0
      vertex 36.4792 24.5324 30
      vertex 46.9267 24.8684 30
    endloop
  endfacet
  facet normal -0.239244 0.970959 0
    outer loop
      vertex 26.3299 22.0316 0
      vertex 26.3299 22.0316 30
      vertex 36.4792 24.5324 0
    endloop
  endfacet
  facet normal -0.239244 0.970959 0
    outer loop
      vertex 36.4792 24.5324 0
      vertex 26.3299 22.0316 30
      vertex 36.4792 24.5324 30
    endloop
  endfacet
  facet normal -0.43589 0.9 0
    outer loop
      vertex 16.9224 17.4753 0
      vertex 16.9224 17.4753 30
      vertex 26.3299 22.0316 0
    endloop
  endfacet
  facet normal -0.43589 0.9 0
    outer loop
      vertex 26.3299 22.0316 0
      vertex 16.9224 17.4753 30
      vertex 26.3299 22.0316 30
    endloop
  endfacet
  facet normal -0.613485 0.789706 0
    outer loop
      vertex 8.66771 11.0627 0
      vertex 8.66771 11.0627 30
      vertex 16.9224 17.4753 0
    endloop
  endfacet
  facet normal -0.613485 0.789706 0
    outer loop
      vertex 16.9224 17.4753 0
      vertex 8.66771 11.0627 30
      vertex 16.9224 17.4753 30
    endloop
  endfacet
  facet normal -0.764268 0.644899 0
    outer loop
      vertex 7.30314 9.44552 0
      vertex 7.30314 9.44552 30
      vertex 8.66771 11.0627 0
    endloop
  endfacet
  facet normal -0.764268 0.644899 0
    outer loop
      vertex 8.66771 11.0627 0
      vertex 7.30314 9.44552 30
      vertex 8.66771 11.0627 30
    endloop
  endfacet
  facet normal 0.587785 0.809017 0
    outer loop
      vertex 6 10.3923 0
      vertex 6 10.3923 35
      vertex 7.30314 9.44552 0
    endloop
  endfacet
  facet normal 0.587785 0.809017 0
    outer loop
      vertex 7.30314 9.44552 30
      vertex 6 10.3923 35
      vertex 8.02957 8.91774 35
    endloop
  endfacet
  facet normal 0.587785 0.809017 0
    outer loop
      vertex 7.30314 9.44552 0
      vertex 6 10.3923 35
      vertex 7.30314 9.44552 30
    endloop
  endfacet
  facet normal 0.587785 0.809017 0
    outer loop
      vertex 7.30314 9.44552 30
      vertex 8.02957 8.91774 35
      vertex 8.02957 8.91774 30
    endloop
  endfacet
  facet normal 0.406737 0.913546 0
    outer loop
      vertex 3.7082 11.4127 0
      vertex 3.7082 11.4127 35
      vertex 6 10.3923 0
    endloop
  endfacet
  facet normal 0.406737 0.913546 0
    outer loop
      vertex 6 10.3923 0
      vertex 3.7082 11.4127 35
      vertex 6 10.3923 35
    endloop
  endfacet
  facet normal 0.207912 0.978148 0
    outer loop
      vertex 1.25434 11.9343 0
      vertex 1.25434 11.9343 35
      vertex 3.7082 11.4127 0
    endloop
  endfacet
  facet normal 0.207912 0.978148 0
    outer loop
      vertex 3.7082 11.4127 0
      vertex 1.25434 11.9343 35
      vertex 3.7082 11.4127 35
    endloop
  endfacet
  facet normal 0 1 0
    outer loop
      vertex -1.25434 11.9343 0
      vertex -1.25434 11.9343 35
      vertex 1.25434 11.9343 0
    endloop
  endfacet
  facet normal 0 1 0
    outer loop
      vertex 1.25434 11.9343 0
      vertex -1.25434 11.9343 35
      vertex 1.25434 11.9343 35
    endloop
  endfacet
  facet normal -0.207912 0.978148 0
    outer loop
      vertex -3.7082 11.4127 0
      vertex -3.7082 11.4127 35
      vertex -1.25434 11.9343 0
    endloop
  endfacet
  facet normal -0.207912 0.978148 0
    outer loop
      vertex -1.25434 11.9343 0
      vertex -3.7082 11.4127 35
      vertex -1.25434 11.9343 35
    endloop
  endfacet
  facet normal -0.406737 0.913546 0
    outer loop
      vertex -6 10.3923 0
      vertex -6 10.3923 35
      vertex -3.7082 11.4127 0
    endloop
  endfacet
  facet normal -0.406737 0.913546 0
    outer loop
      vertex -3.7082 11.4127 0
      vertex -6 10.3923 35
      vertex -3.7082 11.4127 35
    endloop
  endfacet
  facet normal -0.587785 0.809017 0
    outer loop
      vertex -8.02957 8.91774 0
      vertex -8.02957 8.91774 35
      vertex -6 10.3923 0
    endloop
  endfacet
  facet normal -0.587785 0.809017 0
    outer loop
      vertex -6 10.3923 0
      vertex -8.02957 8.91774 35
      vertex -6 10.3923 35
    endloop
  endfacet
  facet normal -0.743145 0.669131 0
    outer loop
      vertex -9.7082 7.05342 0
      vertex -9.7082 7.05342 35
      vertex -8.02957 8.91774 0
    endloop
  endfacet
  facet normal -0.743145 0.669131 0
    outer loop
      vertex -8.02957 8.91774 0
      vertex -9.7082 7.05342 35
      vertex -8.02957 8.91774 35
    endloop
  endfacet
  facet normal -0.866025 0.5 0
    outer loop
      vertex -10.9625 4.88084 30
      vertex -10.9625 4.88084 35
      vertex -10.1164 6.34641 30
    endloop
  endfacet
  facet normal -0.866025 0.5 0
    outer loop
      vertex -10.1164 6.34641 30
      vertex -10.9625 4.88084 35
      vertex -9.7082 7.05342 35
    endloop
  endfacet
  facet normal -0.866025 0.5 0
    outer loop
      vertex -10.1164 6.34641 30
      vertex -9.7082 7.05342 35
      vertex -9.7082 7.05342 0
    endloop
  endfacet
  facet normal -0.866025 0.5 0
    outer loop
      vertex -10.1164 6.34641 30
      vertex -9.7082 7.05342 0
      vertex -10.1164 6.34641 0
    endloop
  endfacet
  facet normal 0.176364 0.984325 0
    outer loop
      vertex -10.1164 6.34641 30
      vertex -10.1164 6.34641 0
      vertex -12.523 6.77761 30
    endloop
  endfacet
  facet normal 0.176364 0.984325 0
    outer loop
      vertex -12.523 6.77761 30
      vertex -10.1164 6.34641 0
      vertex -12.523 6.77761 0
    endloop
  endfacet
  facet normal 0.377163 0.926147 0
    outer loop
      vertex -12.523 6.77761 30
      vertex -12.523 6.77761 0
      vertex -21.2358 10.3258 30
    endloop
  endfacet
  facet normal 0.377163 0.926147 0
    outer loop
      vertex -21.2358 10.3258 30
      vertex -12.523 6.77761 0
      vertex -21.2358 10.3258 0
    endloop
  endfacet
  facet normal 0.561478 0.827492 0
    outer loop
      vertex -21.2358 10.3258 30
      vertex -21.2358 10.3258 0
      vertex -29.0204 15.6079 30
    endloop
  endfacet
  facet normal 0.561478 0.827492 0
    outer loop
      vertex -29.0204 15.6079 30
      vertex -21.2358 10.3258 0
      vertex -29.0204 15.6079 0
    endloop
  endfacet
  facet normal 0.721254 0.692671 0
    outer loop
      vertex -35.5368 22.3932 30
      vertex -29.0204 15.6079 30
      vertex -29.0204 15.6079 0
    endloop
  endfacet
  facet normal 0.721254 0.692671 0
    outer loop
      vertex -35.5368 22.3932 0
      vertex -35.5368 22.3932 30
      vertex -29.0204 15.6079 0
    endloop
  endfacet
  facet normal 0.849507 0.527578 0
    outer loop
      vertex -40.5 30.385 30
      vertex -35.5368 22.3932 30
      vertex -35.5368 22.3932 0
    endloop
  endfacet
  facet normal 0.849507 0.527578 0
    outer loop
      vertex -40.5 30.385 0
      vertex -40.5 30.385 30
      vertex -35.5368 22.3932 0
    endloop
  endfacet
  facet normal 0.940633 0.339426 0
    outer loop
      vertex -43.6932 39.234 30
      vertex -40.5 30.385 30
      vertex -40.5 30.385 0
    endloop
  endfacet
  facet normal 0.940633 0.339426 0
    outer loop
      vertex -43.6932 39.234 0
      vertex -43.6932 39.234 30
      vertex -40.5 30.385 0
    endloop
  endfacet
  facet normal 0.990648 0.136441 0
    outer loop
      vertex -44.9767 48.5536 30
      vertex -43.6932 39.234 30
      vertex -43.6932 39.234 0
    endloop
  endfacet
  facet normal 0.990648 0.136441 0
    outer loop
      vertex -44.9767 48.5536 0
      vertex -44.9767 48.5536 30
      vertex -43.6932 39.234 0
    endloop
  endfacet
  facet normal 0.997368 -0.0725083 0
    outer loop
      vertex -44.2946 57.9364 0
      vertex -44.2946 57.9364 30
      vertex -44.9767 48.5536 30
    endloop
  endfacet
  facet normal 0.997368 -0.0725083 0
    outer loop
      vertex -44.9767 48.5536 0
      vertex -44.2946 57.9364 0
      vertex -44.9767 48.5536 30
    endloop
  endfacet
  facet normal 0.960498 -0.278288 0
    outer loop
      vertex -41.6766 66.9723 0
      vertex -41.6766 66.9723 30
      vertex -44.2946 57.9364 30
    endloop
  endfacet
  facet normal 0.960498 -0.278288 0
    outer loop
      vertex -44.2946 57.9364 0
      vertex -41.6766 66.9723 0
      vertex -44.2946 57.9364 30
    endloop
  endfacet
  facet normal 0.881649 -0.471906 0
    outer loop
      vertex -37.2371 75.2665 0
      vertex -37.2371 75.2665 30
      vertex -41.6766 66.9723 30
    endloop
  endfacet
  facet normal 0.881649 -0.471906 0
    outer loop
      vertex -41.6766 66.9723 0
      vertex -37.2371 75.2665 0
      vertex -41.6766 66.9723 30
    endloop
  endfacet
  facet normal 0.764268 -0.644899 0
    outer loop
      vertex -36.7391 75.8567 0
      vertex -36.7391 75.8567 30
      vertex -37.2371 75.2665 30
    endloop
  endfacet
  facet normal 0.764268 -0.644899 0
    outer loop
      vertex -37.2371 75.2665 0
      vertex -36.7391 75.8567 0
      vertex -37.2371 75.2665 30
    endloop
  endfacet
  facet normal 0.9 0.43589 0
    outer loop
      vertex -39.1117 80.7556 30
      vertex -36.7391 75.8567 30
      vertex -36.7391 75.8567 0
    endloop
  endfacet
  facet normal 0.9 0.43589 0
    outer loop
      vertex -39.1117 80.7556 0
      vertex -39.1117 80.7556 30
      vertex -36.7391 75.8567 0
    endloop
  endfacet
  facet normal -0.764268 0.644898 0
    outer loop
      vertex -41.3746 78.0739 0
      vertex -41.3746 78.0739 30
      vertex -39.1117 80.7556 0
    endloop
  endfacet
  facet normal -0.764268 0.644898 0
    outer loop
      vertex -39.1117 80.7556 0
      vertex -41.3746 78.0739 30
      vertex -39.1117 80.7556 30
    endloop
  endfacet
  facet normal -0.881649 0.471906 0
    outer loop
      vertex -46.3073 68.8582 0
      vertex -46.3073 68.8582 30
      vertex -41.3746 78.0739 0
    endloop
  endfacet
  facet normal -0.881649 0.471906 0
    outer loop
      vertex -41.3746 78.0739 0
      vertex -46.3073 68.8582 30
      vertex -41.3746 78.0739 30
    endloop
  endfacet
  facet normal -0.960498 0.278288 0
    outer loop
      vertex -49.2162 58.8182 0
      vertex -49.2162 58.8182 30
      vertex -46.3073 68.8582 0
    endloop
  endfacet
  facet normal -0.960498 0.278288 0
    outer loop
      vertex -46.3073 68.8582 0
      vertex -49.2162 58.8182 30
      vertex -46.3073 68.8582 30
    endloop
  endfacet
  facet normal -0.997368 0.0725082 0
    outer loop
      vertex -49.9742 48.3929 0
      vertex -49.9742 48.3929 30
      vertex -49.2162 58.8182 0
    endloop
  endfacet
  facet normal -0.997368 0.0725082 0
    outer loop
      vertex -49.2162 58.8182 0
      vertex -49.9742 48.3929 30
      vertex -49.2162 58.8182 30
    endloop
  endfacet
  facet normal -0.990648 -0.136441 0
    outer loop
      vertex -49.9742 48.3929 0
      vertex -48.548 38.0378 0
      vertex -49.9742 48.3929 30
    endloop
  endfacet
  facet normal -0.990648 -0.136441 0
    outer loop
      vertex -49.9742 48.3929 30
      vertex -48.548 38.0378 0
      vertex -48.548 38.0378 30
    endloop
  endfacet
  facet normal -0.940633 -0.339426 0
    outer loop
      vertex -48.548 38.0378 0
      vertex -45 28.2055 0
      vertex -48.548 38.0378 30
    endloop
  endfacet
  facet normal -0.940633 -0.339426 0
    outer loop
      vertex -48.548 38.0378 30
      vertex -45 28.2055 0
      vertex -45 28.2055 30
    endloop
  endfacet
  facet normal -0.849507 -0.527578 0
    outer loop
      vertex -45 28.2055 0
      vertex -39.4853 19.3257 0
      vertex -45 28.2055 30
    endloop
  endfacet
  facet normal -0.849507 -0.527578 0
    outer loop
      vertex -45 28.2055 30
      vertex -39.4853 19.3257 0
      vertex -39.4853 19.3257 30
    endloop
  endfacet
  facet normal -0.721253 -0.692671 0
    outer loop
      vertex -39.4853 19.3257 0
      vertex -32.2449 11.7866 0
      vertex -39.4853 19.3257 30
    endloop
  endfacet
  facet normal -0.721253 -0.692671 0
    outer loop
      vertex -39.4853 19.3257 30
      vertex -32.2449 11.7866 0
      vertex -32.2449 11.7866 30
    endloop
  endfacet
  facet normal -0.561478 -0.827492 0
    outer loop
      vertex -32.2449 11.7866 30
      vertex -32.2449 11.7866 0
      vertex -23.5953 5.91755 0
    endloop
  endfacet
  facet normal -0.561478 -0.827492 0
    outer loop
      vertex -23.5953 5.91755 30
      vertex -32.2449 11.7866 30
      vertex -23.5953 5.91755 0
    endloop
  endfacet
  facet normal -0.377163 -0.926147 0
    outer loop
      vertex -23.5953 5.91755 30
      vertex -23.5953 5.91755 0
      vertex -13.9144 1.97512 0
    endloop
  endfacet
  facet normal -0.377163 -0.926147 0
    outer loop
      vertex -13.9144 1.97512 30
      vertex -23.5953 5.91755 30
      vertex -13.9144 1.97512 0
    endloop
  endfacet
  facet normal -0.176364 -0.984325 0
    outer loop
      vertex -13.9144 1.97512 30
      vertex -13.9144 1.97512 0
      vertex -11.8316 1.60194 0
    endloop
  endfacet
  facet normal -0.176364 -0.984325 0
    outer loop
      vertex -11.8316 1.60194 30
      vertex -13.9144 1.97512 30
      vertex -11.8316 1.60194 0
    endloop
  endfacet
  facet normal -0.994522 0.104529 0
    outer loop
      vertex -12 0 0
      vertex -12 0 35
      vertex -11.8316 1.60194 0
    endloop
  endfacet
  facet normal -0.994522 0.104529 0
    outer loop
      vertex -11.8316 1.60194 30
      vertex -12 0 35
      vertex -11.7378 2.49494 35
    endloop
  endfacet
  facet normal -0.994522 0.104529 0
    outer loop
      vertex -11.8316 1.60194 0
      vertex -12 0 35
      vertex -11.8316 1.60194 30
    endloop
  endfacet
  facet normal -0.994522 0.104529 0
    outer loop
      vertex -11.8316 1.60194 30
      vertex -11.7378 2.49494 35
      vertex -11.7378 2.49494 30
    endloop
  endfacet
  facet normal -0.994522 -0.104529 0
    outer loop
      vertex -12 0 0
      vertex -11.7378 -2.49494 0
      vertex -12 0 35
    endloop
  endfacet
  facet normal -0.994522 -0.104529 0
    outer loop
      vertex -12 0 35
      vertex -11.7378 -2.49494 0
      vertex -11.7378 -2.49494 35
    endloop
  endfacet
  facet normal -0.951057 -0.309017 0
    outer loop
      vertex -11.7378 -2.49494 0
      vertex -10.9625 -4.88084 0
      vertex -11.7378 -2.49494 35
    endloop
  endfacet
  facet normal -0.951057 -0.309017 0
    outer loop
      vertex -11.7378 -2.49494 35
      vertex -10.9625 -4.88084 0
      vertex -10.9625 -4.88084 35
    endloop
  endfacet
  facet normal -0.866025 -0.5 0
    outer loop
      vertex -10.9625 -4.88084 0
      vertex -9.7082 -7.05342 0
      vertex -10.9625 -4.88084 35
    endloop
  endfacet
  facet normal -0.866025 -0.5 0
    outer loop
      vertex -10.9625 -4.88084 35
      vertex -9.7082 -7.05342 0
      vertex -9.7082 -7.05342 35
    endloop
  endfacet
  facet normal -0.743145 -0.669131 0
    outer loop
      vertex -9.7082 -7.05342 0
      vertex -8.02957 -8.91774 0
      vertex -9.7082 -7.05342 35
    endloop
  endfacet
  facet normal -0.743145 -0.669131 0
    outer loop
      vertex -9.7082 -7.05342 35
      vertex -8.02957 -8.91774 0
      vertex -8.02957 -8.91774 35
    endloop
  endfacet
  facet normal -0.587785 -0.809017 0
    outer loop
      vertex -8.02957 -8.91774 35
      vertex -8.02957 -8.91774 0
      vertex -6 -10.3923 0
    endloop
  endfacet
  facet normal -0.587785 -0.809017 0
    outer loop
      vertex -6 -10.3923 35
      vertex -8.02957 -8.91774 35
      vertex -6 -10.3923 0
    endloop
  endfacet
  facet normal -0.406737 -0.913546 0
    outer loop
      vertex -6 -10.3923 35
      vertex -6 -10.3923 0
      vertex -3.7082 -11.4127 0
    endloop
  endfacet
  facet normal -0.406737 -0.913546 0
    outer loop
      vertex -3.7082 -11.4127 35
      vertex -6 -10.3923 35
      vertex -3.7082 -11.4127 0
    endloop
  endfacet
  facet normal -0.207912 -0.978148 0
    outer loop
      vertex -3.7082 -11.4127 35
      vertex -3.7082 -11.4127 0
      vertex -1.25434 -11.9343 0
    endloop
  endfacet
  facet normal -0.207912 -0.978148 0
    outer loop
      vertex -1.25434 -11.9343 35
      vertex -3.7082 -11.4127 35
      vertex -1.25434 -11.9343 0
    endloop
  endfacet
  facet normal 0 -1 0
    outer loop
      vertex -1.25434 -11.9343 35
      vertex -1.25434 -11.9343 0
      vertex -0.437958 -11.9343 0
    endloop
  endfacet
  facet normal 0 -1 0
    outer loop
      vertex 1.25434 -11.9343 30
      vertex -1.25434 -11.9343 35
      vertex -0.437958 -11.9343 30
    endloop
  endfacet
  facet normal 0 -1 0
    outer loop
      vertex -0.437958 -11.9343 30
      vertex -1.25434 -11.9343 35
      vertex -0.437958 -11.9343 0
    endloop
  endfacet
  facet normal 0 -1 0
    outer loop
      vertex 1.25434 -11.9343 35
      vertex -1.25434 -11.9343 35
      vertex 1.25434 -11.9343 30
    endloop
  endfacet
  facet normal -0.940633 -0.339426 0
    outer loop
      vertex 0.391905 -14.234 30
      vertex -0.437958 -11.9343 30
      vertex 0.391905 -14.234 0
    endloop
  endfacet
  facet normal -0.940633 -0.339426 0
    outer loop
      vertex 0.391905 -14.234 0
      vertex -0.437958 -11.9343 30
      vertex -0.437958 -11.9343 0
    endloop
  endfacet
  facet normal -0.990648 -0.136441 0
    outer loop
      vertex 1.67548 -23.5536 30
      vertex 0.391905 -14.234 30
      vertex 1.67548 -23.5536 0
    endloop
  endfacet
  facet normal -0.990648 -0.136441 0
    outer loop
      vertex 1.67548 -23.5536 0
      vertex 0.391905 -14.234 30
      vertex 0.391905 -14.234 0
    endloop
  endfacet
  facet normal -0.997368 0.0725082 0
    outer loop
      vertex 1.67548 -23.5536 30
      vertex 1.67548 -23.5536 0
      vertex 0.993353 -32.9364 30
    endloop
  endfacet
  facet normal -0.997368 0.0725082 0
    outer loop
      vertex 0.993353 -32.9364 30
      vertex 1.67548 -23.5536 0
      vertex 0.993353 -32.9364 0
    endloop
  endfacet
  facet normal -0.960498 0.278288 0
    outer loop
      vertex 0.993353 -32.9364 30
      vertex 0.993353 -32.9364 0
      vertex -1.62466 -41.9723 30
    endloop
  endfacet
  facet normal -0.960498 0.278288 0
    outer loop
      vertex -1.62466 -41.9723 30
      vertex 0.993353 -32.9364 0
      vertex -1.62466 -41.9723 0
    endloop
  endfacet
  facet normal -0.881649 0.471906 0
    outer loop
      vertex -1.62466 -41.9723 30
      vertex -1.62466 -41.9723 0
      vertex -6.06414 -50.2665 30
    endloop
  endfacet
  facet normal -0.881649 0.471906 0
    outer loop
      vertex -6.06414 -50.2665 30
      vertex -1.62466 -41.9723 0
      vertex -6.06414 -50.2665 0
    endloop
  endfacet
  facet normal -0.764268 0.644899 0
    outer loop
      vertex -6.06414 -50.2665 30
      vertex -6.06414 -50.2665 0
      vertex -12.1311 -57.4564 30
    endloop
  endfacet
  facet normal -0.764268 0.644899 0
    outer loop
      vertex -12.1311 -57.4564 30
      vertex -6.06414 -50.2665 0
      vertex -12.1311 -57.4564 0
    endloop
  endfacet
  facet normal -0.613485 0.789706 0
    outer loop
      vertex -12.1311 -57.4564 30
      vertex -12.1311 -57.4564 0
      vertex -19.5603 -63.2278 30
    endloop
  endfacet
  facet normal -0.613485 0.789706 0
    outer loop
      vertex -19.5603 -63.2278 30
      vertex -12.1311 -57.4564 0
      vertex -19.5603 -63.2278 0
    endloop
  endfacet
  facet normal -0.43589 0.9 0
    outer loop
      vertex -19.5603 -63.2278 30
      vertex -19.5603 -63.2278 0
      vertex -28.0271 -67.3285 30
    endloop
  endfacet
  facet normal -0.43589 0.9 0
    outer loop
      vertex -28.0271 -67.3285 30
      vertex -19.5603 -63.2278 0
      vertex -28.0271 -67.3285 0
    endloop
  endfacet
  facet normal -0.239244 0.970959 0
    outer loop
      vertex -28.0271 -67.3285 30
      vertex -28.0271 -67.3285 0
      vertex -37.1614 -69.5792 30
    endloop
  endfacet
  facet normal -0.239244 0.970959 0
    outer loop
      vertex -37.1614 -69.5792 30
      vertex -28.0271 -67.3285 0
      vertex -37.1614 -69.5792 0
    endloop
  endfacet
  facet normal -0.0321423 0.999483 0
    outer loop
      vertex -37.1614 -69.5792 30
      vertex -37.1614 -69.5792 0
      vertex -46.5641 -69.8816 30
    endloop
  endfacet
  facet normal -0.0321423 0.999483 0
    outer loop
      vertex -46.5641 -69.8816 30
      vertex -37.1614 -69.5792 0
      vertex -46.5641 -69.8816 0
    endloop
  endfacet
  facet normal 0.176364 0.984325 0
    outer loop
      vertex -46.5641 -69.8816 30
      vertex -46.5641 -69.8816 0
      vertex -47.3243 -69.7454 30
    endloop
  endfacet
  facet normal 0.176364 0.984325 0
    outer loop
      vertex -47.3243 -69.7454 30
      vertex -46.5641 -69.8816 0
      vertex -47.3243 -69.7454 0
    endloop
  endfacet
  facet normal 0 0 1
    outer loop
      vertex -47.3243 -69.7454 30
      vertex -50.3805 -74.2496 30
      vertex -46.9267 -74.8684 30
    endloop
  endfacet
  facet normal 0 0 1
    outer loop
      vertex -46.5641 -69.8816 30
      vertex -47.3243 -69.7454 30
      vertex -36.4792 -74.5324 30
    endloop
  endfacet
  facet normal 0 0 1
    outer loop
      vertex -36.4792 -74.5324 30
      vertex -47.3243 -69.7454 30
      vertex -46.9267 -74.8684 30
    endloop
  endfacet
  facet normal 0 0 1
    outer loop
      vertex -37.1614 -69.5792 30
      vertex -46.5641 -69.8816 30
      vertex -26.3299 -72.0316 30
    endloop
  endfacet
  facet normal 0 0 1
    outer loop
      vertex -28.0271 -67.3285 30
      vertex -37.1614 -69.5792 30
      vertex -16.9224 -67.4753 30
    endloop
  endfacet
  facet normal 0 0 1
    outer loop
      vertex -19.5603 -63.2278 30
      vertex -28.0271 -67.3285 30
      vertex -8.66771 -61.0627 30
    endloop
  endfacet
  facet normal 0 0 1
    outer loop
      vertex -6.06414 -50.2665 30
      vertex -12.1311 -57.4564 30
      vertex -1.92668 -53.0739 30
    endloop
  endfacet
  facet normal 0 0 1
    outer loop
      vertex -1.62466 -41.9723 30
      vertex -6.06414 -50.2665 30
      vertex 3.00607 -43.8582 30
    endloop
  endfacet
  facet normal 0 0 1
    outer loop
      vertex 0.993353 -32.9364 30
      vertex -1.62466 -41.9723 30
      vertex 5.91498 -33.8182 30
    endloop
  endfacet
  facet normal 0 0 1
    outer loop
      vertex 1.67548 -23.5536 30
      vertex 0.993353 -32.9364 30
      vertex 6.6729 -23.3929 30
    endloop
  endfacet
  facet normal 0 0 1
    outer loop
      vertex 0.391905 -14.234 30
      vertex 4.52849 -11.0475 30
      vertex 3.7082 -11.4127 30
    endloop
  endfacet
  facet normal 0 0 1
    outer loop
      vertex 1.25434 -11.9343 30
      vertex 0.391905 -14.234 30
      vertex 3.7082 -11.4127 30
    endloop
  endfacet
  facet normal 0 0 1
    outer loop
      vertex 5.2467 -13.0378 30
      vertex 1.67548 -23.5536 30
      vertex 6.6729 -23.3929 30
    endloop
  endfacet
  facet normal 0 0 1
    outer loop
      vertex 6.6729 -23.3929 30
      vertex 0.993353 -32.9364 30
      vertex 5.91498 -33.8182 30
    endloop
  endfacet
  facet normal 0 0 1
    outer loop
      vertex 5.91498 -33.8182 30
      vertex -1.62466 -41.9723 30
      vertex 3.00607 -43.8582 30
    endloop
  endfacet
  facet normal 0 0 1
    outer loop
      vertex 3.00607 -43.8582 30
      vertex -6.06414 -50.2665 30
      vertex -1.92668 -53.0739 30
    endloop
  endfacet
  facet normal 0 0 1
    outer loop
      vertex -1.92668 -53.0739 30
      vertex -12.1311 -57.4564 30
      vertex -8.66771 -61.0627 30
    endloop
  endfacet
  facet normal 0 0 1
    outer loop
      vertex -12.1311 -57.4564 30
      vertex -19.5603 -63.2278 30
      vertex -8.66771 -61.0627 30
    endloop
  endfacet
  facet normal 0 0 1
    outer loop
      vertex -8.66771 -61.0627 30
      vertex -28.0271 -67.3285 30
      vertex -16.9224 -67.4753 30
    endloop
  endfacet
  facet normal 0 0 1
    outer loop
      vertex -16.9224 -67.4753 30
      vertex -37.1614 -69.5792 30
      vertex -26.3299 -72.0316 30
    endloop
  endfacet
  facet normal 0 0 1
    outer loop
      vertex -26.3299 -72.0316 30
      vertex -46.5641 -69.8816 30
      vertex -36.4792 -74.5324 30
    endloop
  endfacet
  facet normal 0 0 1
    outer loop
      vertex -0.437958 -11.9343 30
      vertex 0.391905 -14.234 30
      vertex 1.25434 -11.9343 30
    endloop
  endfacet
  facet normal 0 0 1
    outer loop
      vertex 0.391905 -14.234 30
      vertex 5.2467 -13.0378 30
      vertex 4.52849 -11.0475 30
    endloop
  endfacet
  facet normal 0 0 1
    outer loop
      vertex 0.391905 -14.234 30
      vertex 1.67548 -23.5536 30
      vertex 5.2467 -13.0378 30
    endloop
  endfacet
  facet normal 0 0 1
    outer loop
      vertex -11.7378 2.49494 35
      vertex -12 0 35
      vertex -11.7378 -2.49494 35
    endloop
  endfacet
  facet normal 0 0 1
    outer loop
      vertex -9.7082 -7.05342 35
      vertex -11.7378 2.49494 35
      vertex -10.9625 -4.88084 35
    endloop
  endfacet
  facet normal 0 0 1
    outer loop
      vertex -10.9625 -4.88084 35
      vertex -11.7378 2.49494 35
      vertex -11.7378 -2.49494 35
    endloop
  endfacet
  facet normal 0 0 1
    outer loop
      vertex -8.02957 -8.91774 35
      vertex -11.7378 2.49494 35
      vertex -9.7082 -7.05342 35
    endloop
  endfacet
  facet normal 0 0 1
    outer loop
      vertex -6 -10.3923 35
      vertex -11.7378 2.49494 35
      vertex -8.02957 -8.91774 35
    endloop
  endfacet
  facet normal 0 0 1
    outer loop
      vertex -3.7082 -11.4127 35
      vertex -11.7378 2.49494 35
      vertex -6 -10.3923 35
    endloop
  endfacet
  facet normal 0 0 1
    outer loop
      vertex -1.25434 -11.9343 35
      vertex -11.7378 2.49494 35
      vertex -3.7082 -11.4127 35
    endloop
  endfacet
  facet normal 0 0 1
    outer loop
      vertex 1.25434 -11.9343 35
      vertex -11.7378 2.49494 35
      vertex -1.25434 -11.9343 35
    endloop
  endfacet
  facet normal 0 0 1
    outer loop
      vertex 3.7082 -11.4127 35
      vertex -11.7378 2.49494 35
      vertex 1.25434 -11.9343 35
    endloop
  endfacet
  facet normal 0 0 1
    outer loop
      vertex -4.8541 -3.52671 35
      vertex -11.7378 2.49494 35
      vertex 3.7082 -11.4127 35
    endloop
  endfacet
  facet normal 0 0 1
    outer loop
      vertex 6 0 35
      vertex 10.9625 -4.88084 35
      vertex 11.7378 -2.49494 35
    endloop
  endfacet
  facet normal 0 0 1
    outer loop
      vertex -4.8541 3.52671 35
      vertex -1.8541 5.70634 35
      vertex -11.7378 2.49494 35
    endloop
  endfacet
  facet normal 0 0 1
    outer loop
      vertex -1.8541 5.70634 35
      vertex 1.8541 5.70634 35
      vertex 8.02957 8.91774 35
    endloop
  endfacet
  facet normal 0 0 1
    outer loop
      vertex 1.8541 5.70634 35
      vertex 4.8541 3.52671 35
      vertex 10.9625 4.88084 35
    endloop
  endfacet
  facet normal 0 0 1
    outer loop
      vertex 3.7082 11.4127 35
      vertex -11.7378 2.49494 35
      vertex 6 10.3923 35
    endloop
  endfacet
  facet normal 0 0 1
    outer loop
      vertex 1.25434 11.9343 35
      vertex -11.7378 2.49494 35
      vertex 3.7082 11.4127 35
    endloop
  endfacet
  facet normal 0 0 1
    outer loop
      vertex -1.25434 11.9343 35
      vertex -11.7378 2.49494 35
      vertex 1.25434 11.9343 35
    endloop
  endfacet
  facet normal 0 0 1
    outer loop
      vertex -3.7082 11.4127 35
      vertex -11.7378 2.49494 35
      vertex -1.25434 11.9343 35
    endloop
  endfacet
  facet normal 0 0 1
    outer loop
      vertex -6 10.3923 35
      vertex -11.7378 2.49494 35
      vertex -3.7082 11.4127 35
    endloop
  endfacet
  facet normal 0 0 1
    outer loop
      vertex -8.02957 8.91774 35
      vertex -11.7378 2.49494 35
      vertex -6 10.3923 35
    endloop
  endfacet
  facet normal 0 0 1
    outer loop
      vertex -9.7082 7.05342 35
      vertex -11.7378 2.49494 35
      vertex -8.02957 8.91774 35
    endloop
  endfacet
  facet normal 0 0 1
    outer loop
      vertex -10.9625 4.88084 35
      vertex -11.7378 2.49494 35
      vertex -9.7082 7.05342 35
    endloop
  endfacet
  facet normal 0 0 1
    outer loop
      vertex -1.8541 -5.70634 35
      vertex -4.8541 -3.52671 35
      vertex 3.7082 -11.4127 35
    endloop
  endfacet
  facet normal 0 0 1
    outer loop
      vertex 1.8541 -5.70634 35
      vertex -1.8541 -5.70634 35
      vertex 6 -10.3923 35
    endloop
  endfacet
  facet normal 0 0 1
    outer loop
      vertex 4.8541 3.52671 35
      vertex 12 0 35
      vertex 11.7378 2.49494 35
    endloop
  endfacet
  facet normal 0 0 1
    outer loop
      vertex 6 0 35
      vertex 4.8541 -3.52671 35
      vertex 10.9625 -4.88084 35
    endloop
  endfacet
  facet normal 0 0 1
    outer loop
      vertex 6 10.3923 35
      vertex -1.8541 5.70634 35
      vertex 8.02957 8.91774 35
    endloop
  endfacet
  facet normal 0 0 1
    outer loop
      vertex 6 10.3923 35
      vertex -11.7378 2.49494 35
      vertex -1.8541 5.70634 35
    endloop
  endfacet
  facet normal 0 0 1
    outer loop
      vertex 8.02957 8.91774 35
      vertex 1.8541 5.70634 35
      vertex 9.7082 7.05342 35
    endloop
  endfacet
  facet normal 0 0 1
    outer loop
      vertex 1.8541 5.70634 35
      vertex 10.9625 4.88084 35
      vertex 9.7082 7.05342 35
    endloop
  endfacet
  facet normal 0 0 1
    outer loop
      vertex 10.9625 4.88084 35
      vertex 4.8541 3.52671 35
      vertex 11.7378 2.49494 35
    endloop
  endfacet
  facet normal 0 0 1
    outer loop
      vertex 4.8541 3.52671 35
      vertex 6 0 35
      vertex 12 0 35
    endloop
  endfacet
  facet normal 0 0 1
    outer loop
      vertex 12 0 35
      vertex 6 0 35
      vertex 11.7378 -2.49494 35
    endloop
  endfacet
  facet normal 0 0 1
    outer loop
      vertex 10.9625 -4.88084 35
      vertex 4.8541 -3.52671 35
      vertex 9.7082 -7.05342 35
    endloop
  endfacet
  facet normal 0 0 1
    outer loop
      vertex 8.02957 -8.91774 35
      vertex 1.8541 -5.70634 35
      vertex 6 -10.3923 35
    endloop
  endfacet
  facet normal 0 0 1
    outer loop
      vertex 6 -10.3923 35
      vertex -1.8541 -5.70634 35
      vertex 3.7082 -11.4127 35
    endloop
  endfacet
  facet normal 0 0 1
    outer loop
      vertex -4.8541 -3.52671 35
      vertex -6 0 35
      vertex -11.7378 2.49494 35
    endloop
  endfacet
  facet normal 0 0 1
    outer loop
      vertex 4.8541 -3.52671 35
      vertex 1.8541 -5.70634 35
      vertex 8.02957 -8.91774 35
    endloop
  endfacet
  facet normal 0 0 1
    outer loop
      vertex 4.8541 -3.52671 35
      vertex 8.02957 -8.91774 35
      vertex 9.7082 -7.05342 35
    endloop
  endfacet
  facet normal 0 0 1
    outer loop
      vertex -6 0 35
      vertex -4.8541 3.52671 35
      vertex -11.7378 2.49494 35
    endloop
  endfacet
  facet normal 0.207912 -0.978148 0
    outer loop
      vertex 1.25434 -11.9343 35
      vertex 1.25434 -11.9343 30
      vertex 3.7082 -11.4127 30
    endloop
  endfacet
  facet normal 0.207912 -0.978148 0
    outer loop
      vertex 3.7082 -11.4127 35
      vertex 1.25434 -11.9343 35
      vertex 3.7082 -11.4127 30
    endloop
  endfacet
  facet normal 0 0 1
    outer loop
      vertex 12.1311 7.45641 30
      vertex 19.5603 13.2278 30
      vertex 8.66771 11.0627 30
    endloop
  endfacet
  facet normal 0 0 1
    outer loop
      vertex 8.66771 11.0627 30
      vertex 7.30314 9.44552 30
      vertex 8.02957 8.91774 30
    endloop
  endfacet
  facet normal 0 0 1
    outer loop
      vertex 9.7082 7.05342 30
      vertex 8.66771 11.0627 30
      vertex 8.02957 8.91774 30
    endloop
  endfacet
  facet normal 0 0 1
    outer loop
      vertex 9.7082 7.05342 30
      vertex 10.5544 5.58785 30
      vertex 8.66771 11.0627 30
    endloop
  endfacet
  facet normal 0 0 1
    outer loop
      vertex 10.5544 5.58785 30
      vertex 12.1311 7.45641 30
      vertex 8.66771 11.0627 30
    endloop
  endfacet
  facet normal 0 0 1
    outer loop
      vertex 19.5603 13.2278 30
      vertex 28.0271 17.3285 30
      vertex 8.66771 11.0627 30
    endloop
  endfacet
  facet normal 0 0 1
    outer loop
      vertex 28.0271 17.3285 30
      vertex 46.9267 24.8684 30
      vertex 8.66771 11.0627 30
    endloop
  endfacet
  facet normal 0 0 1
    outer loop
      vertex 37.1614 19.5792 30
      vertex 46.9267 24.8684 30
      vertex 28.0271 17.3285 30
    endloop
  endfacet
  facet normal 0 0 1
    outer loop
      vertex 46.5641 19.8816 30
      vertex 57.2157 23.0249 30
      vertex 37.1614 19.5792 30
    endloop
  endfacet
  facet normal 0 0 1
    outer loop
      vertex 55.8242 18.2224 30
      vertex 66.8966 19.0825 30
      vertex 46.5641 19.8816 30
    endloop
  endfacet
  facet normal 0 0 1
    outer loop
      vertex 64.537 14.6742 30
      vertex 75.5462 13.2134 30
      vertex 55.8242 18.2224 30
    endloop
  endfacet
  facet normal 0 0 1
    outer loop
      vertex 72.3217 9.39207 30
      vertex 82.7866 5.67426 30
      vertex 64.537 14.6742 30
    endloop
  endfacet
  facet normal 0 0 1
    outer loop
      vertex 78.8381 2.60683 30
      vertex 89.4923 -6.50606 30
      vertex 72.3217 9.39207 30
    endloop
  endfacet
  facet normal 0 0 1
    outer loop
      vertex 83.8013 -5.38495 30
      vertex 89.4923 -6.50606 30
      vertex 78.8381 2.60683 30
    endloop
  endfacet
  facet normal 0 0 1
    outer loop
      vertex 84.0634 -6.11138 30
      vertex 89.4923 -6.50606 30
      vertex 83.8013 -5.38495 30
    endloop
  endfacet
  facet normal 0 0 1
    outer loop
      vertex 89.4923 -6.50606 30
      vertex 88.3013 -3.20551 30
      vertex 72.3217 9.39207 30
    endloop
  endfacet
  facet normal 0 0 1
    outer loop
      vertex 88.3013 -3.20551 30
      vertex 82.7866 5.67426 30
      vertex 72.3217 9.39207 30
    endloop
  endfacet
  facet normal 0 0 1
    outer loop
      vertex 82.7866 5.67426 30
      vertex 75.5462 13.2134 30
      vertex 64.537 14.6742 30
    endloop
  endfacet
  facet normal 0 0 1
    outer loop
      vertex 75.5462 13.2134 30
      vertex 66.8966 19.0825 30
      vertex 55.8242 18.2224 30
    endloop
  endfacet
  facet normal 0 0 1
    outer loop
      vertex 66.8966 19.0825 30
      vertex 57.2157 23.0249 30
      vertex 46.5641 19.8816 30
    endloop
  endfacet
  facet normal 0 0 1
    outer loop
      vertex 57.2157 23.0249 30
      vertex 46.9267 24.8684 30
      vertex 37.1614 19.5792 30
    endloop
  endfacet
  facet normal 0 0 1
    outer loop
      vertex 46.9267 24.8684 30
      vertex 36.4792 24.5324 30
      vertex 8.66771 11.0627 30
    endloop
  endfacet
  facet normal 0 0 1
    outer loop
      vertex 36.4792 24.5324 30
      vertex 26.3299 22.0316 30
      vertex 8.66771 11.0627 30
    endloop
  endfacet
  facet normal 0 0 1
    outer loop
      vertex 26.3299 22.0316 30
      vertex 16.9224 17.4753 30
      vertex 8.66771 11.0627 30
    endloop
  endfacet
  facet normal 0.743145 0.669131 0
    outer loop
      vertex 9.7082 7.05342 30
      vertex 8.02957 8.91774 30
      vertex 8.02957 8.91774 35
    endloop
  endfacet
  facet normal 0.743145 0.669131 0
    outer loop
      vertex 9.7082 7.05342 35
      vertex 9.7082 7.05342 30
      vertex 8.02957 8.91774 35
    endloop
  endfacet
  facet normal 0 0 1
    outer loop
      vertex -49.2162 58.8182 30
      vertex -49.9742 48.3929 30
      vertex -48.548 38.0378 30
    endloop
  endfacet
  facet normal 0 0 1
    outer loop
      vertex -39.4853 19.3257 30
      vertex -49.2162 58.8182 30
      vertex -45 28.2055 30
    endloop
  endfacet
  facet normal 0 0 1
    outer loop
      vertex -45 28.2055 30
      vertex -49.2162 58.8182 30
      vertex -48.548 38.0378 30
    endloop
  endfacet
  facet normal 0 0 1
    outer loop
      vertex -43.6932 39.234 30
      vertex -49.2162 58.8182 30
      vertex -39.4853 19.3257 30
    endloop
  endfacet
  facet normal 0 0 1
    outer loop
      vertex -35.5368 22.3932 30
      vertex -40.5 30.385 30
      vertex -32.2449 11.7866 30
    endloop
  endfacet
  facet normal 0 0 1
    outer loop
      vertex -21.2358 10.3258 30
      vertex -29.0204 15.6079 30
      vertex -23.5953 5.91755 30
    endloop
  endfacet
  facet normal 0 0 1
    outer loop
      vertex -43.6932 39.234 30
      vertex -44.9767 48.5536 30
      vertex -49.2162 58.8182 30
    endloop
  endfacet
  facet normal 0 0 1
    outer loop
      vertex -12.523 6.77761 30
      vertex -11.8316 1.60194 30
      vertex -11.7378 2.49494 30
    endloop
  endfacet
  facet normal 0 0 1
    outer loop
      vertex -10.9625 4.88084 30
      vertex -12.523 6.77761 30
      vertex -11.7378 2.49494 30
    endloop
  endfacet
  facet normal 0 0 1
    outer loop
      vertex -13.9144 1.97512 30
      vertex -21.2358 10.3258 30
      vertex -23.5953 5.91755 30
    endloop
  endfacet
  facet normal 0 0 1
    outer loop
      vertex -23.5953 5.91755 30
      vertex -29.0204 15.6079 30
      vertex -32.2449 11.7866 30
    endloop
  endfacet
  facet normal 0 0 1
    outer loop
      vertex -29.0204 15.6079 30
      vertex -35.5368 22.3932 30
      vertex -32.2449 11.7866 30
    endloop
  endfacet
  facet normal 0 0 1
    outer loop
      vertex -32.2449 11.7866 30
      vertex -40.5 30.385 30
      vertex -39.4853 19.3257 30
    endloop
  endfacet
  facet normal 0 0 1
    outer loop
      vertex -40.5 30.385 30
      vertex -43.6932 39.234 30
      vertex -39.4853 19.3257 30
    endloop
  endfacet
  facet normal 0 0 1
    outer loop
      vertex -41.6766 66.9723 30
      vertex -49.2162 58.8182 30
      vertex -44.2946 57.9364 30
    endloop
  endfacet
  facet normal 0 0 1
    outer loop
      vertex -37.2371 75.2665 30
      vertex -49.2162 58.8182 30
      vertex -41.6766 66.9723 30
    endloop
  endfacet
  facet normal 0 0 1
    outer loop
      vertex -39.1117 80.7556 30
      vertex -49.2162 58.8182 30
      vertex -37.2371 75.2665 30
    endloop
  endfacet
  facet normal 0 0 1
    outer loop
      vertex -39.1117 80.7556 30
      vertex -37.2371 75.2665 30
      vertex -36.7391 75.8567 30
    endloop
  endfacet
  facet normal 0 0 1
    outer loop
      vertex -41.3746 78.0739 30
      vertex -49.2162 58.8182 30
      vertex -39.1117 80.7556 30
    endloop
  endfacet
  facet normal 0 0 1
    outer loop
      vertex -46.3073 68.8582 30
      vertex -49.2162 58.8182 30
      vertex -41.3746 78.0739 30
    endloop
  endfacet
  facet normal 0 0 1
    outer loop
      vertex -10.1164 6.34641 30
      vertex -12.523 6.77761 30
      vertex -10.9625 4.88084 30
    endloop
  endfacet
  facet normal 0 0 1
    outer loop
      vertex -12.523 6.77761 30
      vertex -13.9144 1.97512 30
      vertex -11.8316 1.60194 30
    endloop
  endfacet
  facet normal 0 0 1
    outer loop
      vertex -12.523 6.77761 30
      vertex -21.2358 10.3258 30
      vertex -13.9144 1.97512 30
    endloop
  endfacet
  facet normal 0 0 1
    outer loop
      vertex -44.9767 48.5536 30
      vertex -44.2946 57.9364 30
      vertex -49.2162 58.8182 30
    endloop
  endfacet
  facet normal -0.951057 0.309017 0
    outer loop
      vertex -11.7378 2.49494 30
      vertex -11.7378 2.49494 35
      vertex -10.9625 4.88084 30
    endloop
  endfacet
  facet normal -0.951057 0.309017 0
    outer loop
      vertex -10.9625 4.88084 30
      vertex -11.7378 2.49494 35
      vertex -10.9625 4.88084 35
    endloop
  endfacet
  facet normal -0.587785 -0.809017 0
    outer loop
      vertex -4.8541 -3.52671 80
      vertex -4.8541 -3.52671 35
      vertex -1.8541 -5.70634 35
    endloop
  endfacet
  facet normal -0.587785 -0.809017 0
    outer loop
      vertex -1.8541 -5.70634 80
      vertex -4.8541 -3.52671 80
      vertex -1.8541 -5.70634 35
    endloop
  endfacet
  facet normal -0.951057 -0.309017 0
    outer loop
      vertex -6 0 35
      vertex -4.8541 -3.52671 35
      vertex -6 0 80
    endloop
  endfacet
  facet normal -0.951057 -0.309017 0
    outer loop
      vertex -6 0 80
      vertex -4.8541 -3.52671 35
      vertex -4.8541 -3.52671 80
    endloop
  endfacet
  facet normal 0 -1 0
    outer loop
      vertex -1.8541 -5.70634 80
      vertex -1.8541 -5.70634 35
      vertex 1.8541 -5.70634 35
    endloop
  endfacet
  facet normal 0 -1 0
    outer loop
      vertex 1.8541 -5.70634 80
      vertex -1.8541 -5.70634 80
      vertex 1.8541 -5.70634 35
    endloop
  endfacet
  facet normal 0.587785 -0.809017 0
    outer loop
      vertex 1.8541 -5.70634 80
      vertex 1.8541 -5.70634 35
      vertex 4.8541 -3.52671 35
    endloop
  endfacet
  facet normal 0.587785 -0.809017 0
    outer loop
      vertex 4.8541 -3.52671 80
      vertex 1.8541 -5.70634 80
      vertex 4.8541 -3.52671 35
    endloop
  endfacet
  facet normal 0.951057 -0.309017 0
    outer loop
      vertex 4.8541 -3.52671 80
      vertex 4.8541 -3.52671 35
      vertex 6 0 35
    endloop
  endfacet
  facet normal 0.951057 -0.309017 0
    outer loop
      vertex 6 0 80
      vertex 4.8541 -3.52671 80
      vertex 6 0 35
    endloop
  endfacet
  facet normal 0.951057 0.309017 0
    outer loop
      vertex 6 0 35
      vertex 4.8541 3.52671 35
      vertex 4.8541 3.52671 80
    endloop
  endfacet
  facet normal 0.951057 0.309017 0
    outer loop
      vertex 6 0 80
      vertex 6 0 35
      vertex 4.8541 3.52671 80
    endloop
  endfacet
  facet normal 0.587785 0.809017 0
    outer loop
      vertex 1.8541 5.70634 35
      vertex 1.8541 5.70634 80
      vertex 4.8541 3.52671 35
    endloop
  endfacet
  facet normal 0.587785 0.809017 0
    outer loop
      vertex 4.8541 3.52671 35
      vertex 1.8541 5.70634 80
      vertex 4.8541 3.52671 80
    endloop
  endfacet
  facet normal 0 1 0
    outer loop
      vertex -1.8541 5.70634 35
      vertex -1.8541 5.70634 80
      vertex 1.8541 5.70634 35
    endloop
  endfacet
  facet normal 0 1 0
    outer loop
      vertex 1.8541 5.70634 35
      vertex -1.8541 5.70634 80
      vertex 1.8541 5.70634 80
    endloop
  endfacet
  facet normal -0.587785 0.809017 0
    outer loop
      vertex -4.8541 3.52671 35
      vertex -4.8541 3.52671 80
      vertex -1.8541 5.70634 35
    endloop
  endfacet
  facet normal -0.587785 0.809017 0
    outer loop
      vertex -1.8541 5.70634 35
      vertex -4.8541 3.52671 80
      vertex -1.8541 5.70634 80
    endloop
  endfacet
  facet normal -0.951057 0.309017 0
    outer loop
      vertex -6 0 35
      vertex -6 0 80
      vertex -4.8541 3.52671 35
    endloop
  endfacet
  facet normal -0.951057 0.309017 0
    outer loop
      vertex -4.8541 3.52671 35
      vertex -6 0 80
      vertex -4.8541 3.52671 80
    endloop
  endfacet
  facet normal 0 0 1
    outer loop
      vertex -4.8541 3.52671 80
      vertex -6 0 80
      vertex -4.8541 -3.52671 80
    endloop
  endfacet
  facet normal 0 0 1
    outer loop
      vertex 1.8541 -5.70634 80
      vertex -4.8541 3.52671 80
      vertex -1.8541 -5.70634 80
    endloop
  endfacet
  facet normal 0 0 1
    outer loop
      vertex -1.8541 -5.70634 80
      vertex -4.8541 3.52671 80
      vertex -4.8541 -3.52671 80
    endloop
  endfacet
  facet normal 0 0 1
    outer loop
      vertex 4.8541 -3.52671 80
      vertex -4.8541 3.52671 80
      vertex 1.8541 -5.70634 80
    endloop
  endfacet
  facet normal 0 0 1
    outer loop
      vertex 6 0 80
      vertex -4.8541 3.52671 80
      vertex 4.8541 -3.52671 80
    endloop
  endfacet
  facet normal 0 0 1
    outer loop
      vertex 4.8541 3.52671 80
      vertex -4.8541 3.52671 80
      vertex 6 0 80
    endloop
  endfacet
  facet normal 0 0 1
    outer loop
      vertex 1.8541 5.70634 80
      vertex -4.8541 3.52671 80
      vertex 4.8541 3.52671 80
    endloop
  endfacet
  facet normal 0 0 1
    outer loop
      vertex -1.8541 5.70634 80
      vertex -4.8541 3.52671 80
      vertex 1.8541 5.70634 80
    endloop
  endfacet
endsolid OpenSCAD_Model
